<svg width="140" height="73" viewBox="0 0 140 73" fill="none" xmlns="http://www.w3.org/2000/svg">
<g id="logo">
<path id="Vector" d="M25.1247 59.6294V71.0704C25.1247 72.0244 24.4091 72.5 22.9802 72.5C21.5513 72.5 20.8512 72.0354 20.8358 71.1036V59.6294H17.9758C17.0225 59.6294 16.5469 58.9136 16.5469 57.4842C16.5469 56.0551 17.0115 55.3547 17.9427 55.3393H28.0177C28.9492 55.3547 29.4137 56.0681 29.4137 57.4842C29.4137 58.9005 28.938 59.6294 27.9847 59.6294H25.1247Z" fill="#404040"/>
<path id="Vector_2" d="M35.1307 66.3995V69.6386C35.1307 70.5927 34.4153 71.0683 32.9863 71.0683C31.5575 71.0683 30.8572 70.6037 30.8418 69.6719V56.7356C30.8572 55.8127 31.564 55.3458 32.9644 55.3393H35.1307C39.8953 55.3393 42.2796 56.9513 42.2796 60.1777C42.2796 62.5165 41.0313 64.0097 38.5389 64.6575C40.4522 67.1812 41.7889 68.5644 42.5485 68.8021C43.3234 69.0401 43.711 69.5798 43.711 70.423C43.711 70.4826 43.7064 70.5504 43.6998 70.6238C43.6336 71.5771 43.123 72.1961 42.1695 72.4778C42.0067 72.4931 41.8459 72.5 41.6897 72.5C40.2232 72.5 38.9464 71.8741 37.8586 70.6238C36.7799 69.2973 35.8707 67.8904 35.133 66.3995H35.1307ZM35.1307 58.9708V61.3957C37.0374 61.3957 37.9909 60.9905 37.9909 60.1777C37.9909 59.3651 37.0374 58.9708 35.1307 58.9708Z" fill="#404040"/>
<path id="Vector_3" d="M55.1448 53.9076C56.0983 53.9076 56.5739 54.6236 56.5739 56.0528C56.5739 57.4822 56.0983 58.1979 55.1448 58.1979H49.3808C48.7248 58.1979 48.3042 58.6736 48.1192 59.6271H53.7137C54.6672 59.6271 55.1428 60.3428 55.1428 61.7723C55.1428 63.2017 54.6672 63.9175 53.7137 63.9175H48.1192C48.3131 64.8709 48.749 65.3466 49.4271 65.3466H55.1448C56.0983 65.3466 56.5739 66.0623 56.5739 67.4918C56.5739 68.921 56.0983 69.6373 55.1448 69.6373H49.3698C45.594 69.6373 43.707 67.265 43.707 62.5211V61.0917C43.707 56.3016 45.6137 53.9076 49.4248 53.9076H55.1448Z" fill="#404040"/>
<path id="Vector_4" d="M69.4418 69.6387C69.4418 70.5927 68.7263 71.0683 67.2972 71.0683C65.8684 71.0683 65.1527 70.5927 65.1527 69.6387V66.7781H62.2928V68.2076C62.2928 69.1609 61.5772 69.6373 60.1484 69.6373C58.7193 69.6373 58.0193 69.172 58.0039 68.2406V62.4857C58.0039 57.72 59.9106 55.3347 63.7217 55.3347C67.5327 55.3347 69.4397 57.7176 69.4397 62.4857V69.6373L69.4418 69.6387ZM62.2928 62.488H65.1527C65.1527 60.5808 64.6771 59.6271 63.7239 59.6271C62.7704 59.6271 62.2949 60.5808 62.2949 62.488H62.2928Z" fill="#404040"/>
<path id="Vector_5" d="M81.6928 62.3383C82.0208 62.5211 82.2737 62.6797 82.452 62.814C82.6303 62.9483 82.8093 63.1115 82.9869 63.3052C83.5093 64.0429 83.7691 64.8997 83.7691 65.8752C83.7691 67.4103 83.207 68.6415 82.0821 69.5729C80.8827 70.5705 79.2007 71.0711 77.0338 71.0711C75.2173 71.0711 73.6982 70.628 72.4765 69.7404C71.4039 68.9652 70.8689 68.1326 70.8689 67.2384C70.8689 65.8841 71.6929 65.2057 73.3374 65.2057C73.9406 65.2057 74.5702 65.4701 75.2243 65.9986C75.8804 66.5206 76.8095 66.7803 78.0159 66.7803C78.9694 66.7803 79.4444 66.4786 79.4444 65.8752C79.4444 65.556 78.7333 65.2609 77.311 64.9921C77.1111 64.9326 76.666 64.8092 75.9814 64.6243C75.3496 64.4615 74.8391 64.316 74.4511 64.1883C73.1417 63.7631 72.1902 63.1972 71.6024 62.4903C71.089 61.834 70.832 61.0631 70.832 60.1777C70.832 58.7485 71.3934 57.6011 72.5183 56.7376C73.7156 55.8062 75.4005 55.3413 77.5666 55.3413C79.3831 55.3413 80.9022 55.7556 82.1239 56.5813C83.1966 57.3036 83.7336 58.0791 83.7336 58.9048C83.7336 60.1711 82.9103 60.8031 81.2658 60.8031C80.6619 60.8031 80.033 60.5565 79.3783 60.0654C78.7228 59.5743 77.7937 59.3277 76.5866 59.3277C75.6338 59.3497 75.1581 59.6448 75.1581 60.2108C75.1581 60.5083 75.8692 60.7702 77.2915 60.9925C77.4921 61.0519 77.9344 61.1665 78.6212 61.3386C79.2529 61.4948 79.7641 61.6291 80.1514 61.7414C80.8514 61.9574 81.3647 62.1577 81.6928 62.3383Z" fill="#404040"/>
<path id="Vector_6" d="M92.0141 63.9195V58.2002C92.0141 57.2465 92.7294 56.7708 94.1587 56.7708C95.5872 56.7708 96.3026 57.2465 96.3026 58.2002V63.9195C96.3026 68.6855 94.3962 71.0704 90.5849 71.0704C86.7735 71.0704 84.8672 68.6875 84.8672 63.9195V56.7356C84.8825 55.8039 85.5957 55.3393 87.0118 55.3393C88.4271 55.3393 89.1563 55.815 89.1563 56.7685V63.9195C89.1563 65.8269 89.6314 66.7803 90.5849 66.7803C91.5384 66.7803 92.0141 65.8269 92.0141 63.9195Z" fill="#404040"/>
<path id="Vector_7" d="M102.021 66.3995V69.6386C102.021 70.5927 101.306 71.0683 99.877 71.0683C98.4477 71.0683 97.7477 70.6037 97.7324 69.6719V56.7356C97.7477 55.8127 98.4547 55.3458 99.8547 55.3393H102.021C106.786 55.3393 109.171 56.9513 109.171 60.1777C109.171 62.5165 107.922 64.0097 105.43 64.6575C107.343 67.1812 108.68 68.5644 109.439 68.8021C110.214 69.0401 110.601 69.5798 110.601 70.423C110.601 70.4826 110.597 70.5504 110.59 70.6238C110.524 71.5771 110.013 72.1961 109.06 72.4778C108.897 72.4931 108.736 72.5 108.58 72.5C107.114 72.5 105.837 71.8741 104.749 70.6238C103.67 69.2973 102.761 67.8904 102.024 66.3995H102.021ZM102.021 58.9708V61.3957C103.928 61.3957 104.881 60.9905 104.881 60.1777C104.881 59.3651 103.928 58.9708 102.021 58.9708Z" fill="#404040"/>
<path id="Vector_8" d="M122.033 53.9076C122.987 53.9076 123.462 54.6236 123.462 56.0528C123.462 57.4822 122.987 58.1979 122.033 58.1979H116.27C115.613 58.1979 115.193 58.6736 115.008 59.6271H120.602C121.555 59.6271 122.031 60.3428 122.031 61.7723C122.031 63.2017 121.555 63.9175 120.602 63.9175H115.008C115.202 64.8709 115.637 65.3466 116.315 65.3466H122.033C122.987 65.3466 123.462 66.0623 123.462 67.4918C123.462 68.921 122.987 69.6373 122.033 69.6373H116.258C112.483 69.6373 110.596 67.265 110.596 62.5211V61.0917C110.596 56.3016 112.502 53.9076 116.313 53.9076H122.033Z" fill="#404040"/>
<path id="Vector_9" d="M121.757 47.3403C119.404 47.3403 117.05 47.336 114.697 47.3426C114.032 47.3426 113.387 47.2523 112.757 47.0386C111.291 46.5451 110.392 45.5211 110.044 44.0411C109.897 43.4068 109.824 42.744 109.813 42.0942C109.782 40.2245 109.773 38.3524 109.818 36.4807C109.835 35.7338 109.949 34.9741 110.133 34.2495C110.491 32.818 111.531 32.1 112.937 31.9306C113.767 31.8292 114.613 31.8711 115.45 31.8381C115.811 31.8249 116.173 31.8138 116.526 31.7431C116.899 31.6683 117 31.4414 116.878 31.0803C116.751 30.6995 116.504 30.4 116.227 30.1091C114.661 28.4773 113.215 26.7594 112.334 24.6429C111.96 23.7422 111.737 22.8084 111.7 21.8284C111.656 20.6391 111.746 19.4718 112.147 18.3376C112.964 16.0318 114.602 14.5408 116.825 13.6334C117.881 13.204 118.988 12.9793 120.115 12.8054C121.247 12.6314 122.376 12.6402 123.51 12.6402C127.361 12.638 131.211 12.6292 135.062 12.6468C136.007 12.6512 136.925 12.845 137.77 13.2986C139.09 14.0078 139.732 15.1729 139.871 16.6044C140.088 18.8794 139.97 21.1632 139.957 23.4426C139.952 24.2421 139.867 25.0393 139.6 25.8146C139.118 27.2131 138.134 27.9619 136.691 28.1094C135.811 28.1976 134.919 28.2064 134.034 28.2482C133.902 28.2548 133.77 28.2394 133.64 28.2548C133.35 28.2901 133.239 28.4266 133.268 28.7217C133.301 29.0675 133.499 29.3274 133.719 29.5762C134.263 30.1928 134.809 30.8052 135.339 31.4329C136.189 32.4392 136.938 33.5183 137.535 34.6944C138.169 35.9432 138.58 37.2712 138.552 38.663C138.484 42.0633 137.026 44.6579 133.869 46.1511C132.244 46.9198 130.507 47.3006 128.712 47.3272C126.392 47.3623 124.071 47.336 121.75 47.336V47.3403H121.757Z" fill="#9966CC"/>
<path id="Subtract" fill-rule="evenodd" clip-rule="evenodd" d="M93.539 12.6412C92.3605 12.6418 91.1819 12.6424 90.0034 12.6424L90.0096 12.6468C88.7899 12.6468 87.5701 12.647 86.3503 12.6471C82.6508 12.6475 78.951 12.6479 75.2519 12.6446C74.4195 12.6424 73.6116 12.7811 72.8364 13.0696C72.1008 13.3428 71.5311 13.814 71.1828 14.5364C70.8994 15.1267 70.9119 15.7477 70.9808 16.3687C71.0972 17.4149 71.5708 18.3465 72.0375 19.2626C72.6429 20.4493 73.2721 21.6237 73.9012 22.798C74.2716 23.4893 74.6419 24.1805 75.0074 24.8742C75.7489 26.28 76.4885 27.6869 77.2281 29.0938C78.588 31.6808 79.948 34.2678 81.3199 36.8484C81.5769 37.333 81.7204 37.8041 81.6675 38.3439C81.6584 38.4253 81.6563 38.509 81.6563 38.5905C81.6551 38.9072 81.6513 39.2243 81.6474 39.5414C81.631 40.8801 81.6146 42.2206 81.7998 43.5523C81.9781 44.834 82.5479 45.8957 83.6644 46.598C84.4285 47.0783 85.2852 47.3314 86.1899 47.336C88.7239 47.3492 91.2585 47.358 93.7896 47.3161C94.367 47.3052 94.966 47.1574 95.5142 46.9594C97.2005 46.3492 98.1031 44.8891 98.2 42.962C98.264 41.6962 98.2433 40.4244 98.2227 39.1539C98.2177 38.8485 98.2128 38.5433 98.209 38.2382C98.202 37.7625 98.31 37.3485 98.5371 36.9299C100.115 33.9964 101.687 31.0583 103.246 28.1161C103.882 26.9129 104.511 25.705 105.14 24.497C105.564 23.6819 105.988 22.8668 106.415 22.053C106.795 21.3258 107.18 20.6015 107.564 19.8776C107.749 19.5295 107.934 19.1814 108.118 18.8332C108.48 18.1483 108.762 17.4369 108.949 16.6815C109.334 15.1222 108.493 13.4132 106.846 12.9683C106.203 12.7944 105.523 12.6601 104.86 12.6556C101.085 12.6372 97.3121 12.6392 93.539 12.6412ZM91.3985 19.761C91.5156 19.7525 91.6327 19.744 91.7488 19.7318L91.7509 19.7295C93.0986 19.7207 94.2458 20.1722 95.1178 21.2029C95.8993 22.1323 96.1347 23.2092 95.9696 24.4206C95.6395 26.8277 93.2393 28.0962 91.0773 27.7703C90.2318 27.6425 89.444 27.3606 88.8095 26.7726C87.6101 25.6582 87.1956 24.295 87.6101 22.7093C88.0196 21.1435 89.0874 20.2361 90.6281 19.8595C90.8774 19.7987 91.138 19.7798 91.3985 19.761Z" fill="#28B3DD"/>
<path id="Subtract_2" fill-rule="evenodd" clip-rule="evenodd" d="M52.9819 48.122C50.8924 48.1971 48.3955 47.7477 45.9893 46.836C43.9792 46.074 42.1363 45.0146 40.4849 43.6162C39.0384 42.3916 37.832 40.9711 36.8566 39.3613C35.8392 37.6807 35.1657 35.8618 34.7363 33.9346C34.3115 32.034 34.2761 30.1246 34.395 28.2086C34.4809 26.8013 34.8002 25.4226 35.2427 24.0747C35.9496 21.9274 37.0548 19.9982 38.4989 18.2693C39.6548 16.8841 41.0443 15.7521 42.5766 14.8007C44.84 13.3978 47.3081 12.5411 49.9301 12.0874C51.7268 11.7768 53.5411 11.7483 55.3399 11.8803C58.017 12.0786 60.5778 12.7745 62.9863 14.0056C64.642 14.8535 66.1239 15.9305 67.4757 17.1858C68.0148 17.6857 68.4885 18.265 68.9376 18.8485C70.0756 20.3264 70.9741 21.9385 71.6059 23.7003C72.0746 25.006 72.3167 26.3579 72.5594 27.7129L72.5594 27.713L72.5768 27.8099C72.6237 28.069 72.6234 28.3381 72.6231 28.6057V28.6057C72.623 28.668 72.623 28.7302 72.6235 28.7922C72.6297 29.4154 72.6297 30.0386 72.6235 30.662C72.588 33.7652 71.7535 36.6524 70.1592 39.3062C67.7685 43.2902 64.2546 45.8471 59.8401 47.2126C58.7435 47.5517 57.6207 47.7809 56.4759 47.9395C55.6065 48.0597 54.7419 48.0773 53.5513 48.1015C53.3701 48.1052 53.1814 48.1091 52.9839 48.1134L52.9819 48.122ZM60.1638 28.7855C57.4644 28.1447 55.3068 25.9886 54.6684 23.2885C54.5384 22.7401 54.0474 22.3503 53.4837 22.3503C52.92 22.3503 52.4292 22.7379 52.2993 23.2885C51.6608 25.9886 49.503 28.1469 46.8039 28.7855C46.2556 28.9155 45.8658 29.4066 45.8658 29.9706C45.8658 30.5343 46.2533 31.0254 46.8039 31.1551C49.503 31.7963 51.6608 33.9523 52.2993 36.6524C52.4292 37.2007 52.92 37.5904 53.4837 37.5904C54.0474 37.5904 54.5384 37.203 54.6684 36.6524C55.3091 33.9523 57.4644 31.794 60.1638 31.1551C60.7121 31.0254 61.1016 30.5343 61.1016 29.9706C61.1016 29.4066 60.7141 28.9155 60.1638 28.7855ZM45.9474 16.3247C46.4184 16.0649 47.013 16.2344 47.2727 16.7057V16.7035C47.5324 17.1749 47.3631 17.7694 46.8918 18.0293C43.5959 19.8551 41.1806 22.9868 40.2625 26.6229C40.1504 27.0633 39.7541 27.3585 39.3181 27.3585C39.2388 27.3585 39.1573 27.3475 39.0781 27.3277C38.5562 27.1977 38.2392 26.6669 38.3712 26.145C39.4216 21.9891 42.1826 18.4082 45.9474 16.3247Z" fill="#FC4C9C"/>
<path id="Vector_10" d="M16.0332 12.6424C19.7189 12.6424 23.4067 12.6424 27.0924 12.6424C27.8586 12.6424 28.6007 12.7877 29.3118 13.052C30.6436 13.5453 31.4871 14.5188 31.8215 15.8798C31.9889 16.5581 32.0793 17.2717 32.0835 17.9721C32.1101 21.4187 32.1055 24.8654 32.0924 28.312C32.0882 29.2986 31.945 30.2766 31.5332 31.1883C30.9761 32.4238 30.036 33.1881 28.6623 33.2741C27.4975 33.3466 26.3284 33.318 25.1593 33.3355C24.2742 33.3489 24.3292 33.2034 24.327 34.1438C24.327 36.7207 24.349 39.2973 24.3139 41.8742C24.3029 42.6713 24.2104 43.4863 24.01 44.2548C23.6027 45.8186 22.5415 46.7832 20.9651 47.1508C20.4895 47.2631 19.9919 47.3314 19.5053 47.336C17.1517 47.3557 14.7981 47.3491 12.4445 47.3426C11.5242 47.3426 10.6501 47.1354 9.84647 46.6774C8.82928 46.0982 8.24804 45.1951 7.93322 44.0963C7.75484 43.4751 7.71298 42.8408 7.71521 42.1979C7.71959 39.5065 7.71521 36.8153 7.71521 34.1218C7.71521 34.0227 7.71521 33.9258 7.71521 33.8266C7.70789 33.5052 7.53836 33.3415 7.20661 33.3355C5.94063 33.3157 4.67246 33.318 3.4065 33.2695C2.23299 33.2255 1.3501 32.6441 0.740229 31.6597C0.244849 30.858 0.0202752 29.9617 0.0180735 29.0322C0.00266173 25.0438 -0.0171534 21.0553 0.0268803 17.0669C0.0466954 15.1927 1.03746 13.5695 2.97938 12.9639C3.63988 12.7569 4.31798 12.638 5.01812 12.6402C7.42016 12.6467 9.82446 12.6424 12.2265 12.6424C13.4947 12.6424 14.7607 12.6424 16.0288 12.6424H16.0332Z" fill="#FCB424"/>
<path id="Vector_11" d="M27.4838 3.52247C28.5407 2.99391 29.5646 2.48517 30.584 1.96761C30.978 1.7672 31.3566 1.73637 31.7176 2.01387C32.0877 2.29797 32.1582 2.67457 32.0654 3.12385C31.6383 5.21387 31.2246 7.30828 30.8083 9.40275C30.6829 10.0348 30.3416 10.3189 29.6966 10.3211C26.284 10.3211 22.8713 10.3211 19.4609 10.3211C18.8422 10.3211 18.4921 10.0282 18.3688 9.41591C17.9461 7.3017 17.5256 5.18743 17.0985 3.07319C17.0126 2.64594 17.1051 2.28916 17.4464 2.02267C17.792 1.75399 18.1663 1.75619 18.5516 1.95C19.5908 2.47195 20.6322 2.99171 21.7 3.52466C22.2967 2.78028 22.8867 2.0425 23.479 1.30471C23.5671 1.1946 23.6551 1.08228 23.7432 0.972155C24.2496 0.348894 24.9233 0.340084 25.4231 0.961147C26.0264 1.70774 26.6208 2.45874 27.2197 3.20754C27.3011 3.30884 27.3848 3.40795 27.4817 3.52466L27.4838 3.52247Z" fill="#FCB424"/>
</g>
</svg>
