<svg width="141" height="72" viewBox="0 0 141 72" fill="none" xmlns="http://www.w3.org/2000/svg">
<g clip-path="url(#clip0_166_1864)">
<path d="M25.1696 59.1299V70.5709C25.1696 71.5245 24.4526 72.0002 23.0207 72.0002C21.5889 72.0002 20.8873 71.5355 20.8719 70.604V59.1299H18.006C17.0508 59.1299 16.5742 58.4142 16.5742 56.9849C16.5742 55.5556 17.0397 54.8553 17.973 54.8398H28.0685C29.0018 54.8553 29.4673 55.5688 29.4673 56.9849C29.4673 58.401 28.9907 59.1299 28.0354 59.1299H25.1696Z" fill="#404040"/>
<path d="M35.1961 65.8998V69.1394C35.1961 70.093 34.4791 70.5687 33.0473 70.5687C31.6155 70.5687 30.9139 70.104 30.8984 69.1725V56.2361C30.9139 55.3133 31.6221 54.8465 33.0252 54.8398H35.1961C39.9703 54.8398 42.3597 56.4519 42.3597 59.6783C42.3597 62.0172 41.1087 63.5103 38.6113 64.1578C40.5285 66.6816 41.8677 68.0647 42.6288 68.3025C43.4054 68.5404 43.7937 69.08 43.7937 69.9234C43.7937 69.9829 43.7893 70.0512 43.7827 70.1239C43.7165 71.0774 43.2046 71.6963 42.2493 71.9782C42.0861 71.9936 41.925 72.0002 41.7684 72.0002C40.2991 72.0002 39.0195 71.3748 37.9296 70.1239C36.8486 68.7981 35.9374 67.3908 35.1983 65.8998H35.1961ZM35.1961 58.4714V60.8962C37.1067 60.8962 38.062 60.491 38.062 59.6783C38.062 58.8657 37.1067 58.4714 35.1961 58.4714Z" fill="#404040"/>
<path d="M55.2503 53.4082C56.2056 53.4082 56.6821 54.124 56.6821 55.5533C56.6821 56.9825 56.2056 57.6983 55.2503 57.6983H49.4744C48.817 57.6983 48.3956 58.174 48.2103 59.1276H53.8162C54.7715 59.1276 55.2481 59.8433 55.2481 61.2726C55.2481 62.7019 54.7715 63.4177 53.8162 63.4177H48.2103C48.4044 64.3713 48.8413 64.847 49.5208 64.847H55.2503C56.2056 64.847 56.6821 65.5627 56.6821 66.992C56.6821 68.4213 56.2056 69.1371 55.2503 69.1371H49.4634C45.6798 69.1371 43.7891 66.7652 43.7891 62.0214V60.5921C43.7891 55.8021 45.6996 53.4082 49.5186 53.4082H55.2481H55.2503Z" fill="#404040"/>
<path d="M69.5784 69.1394C69.5784 70.093 68.8614 70.5687 67.4296 70.5687C65.9977 70.5687 65.2807 70.093 65.2807 69.1394V66.2786H62.4149V67.7079C62.4149 68.6615 61.6979 69.1372 60.266 69.1372C58.8342 69.1372 58.1326 68.6725 58.1172 67.741V61.9863C58.1172 57.2205 60.0278 54.8354 63.8467 54.8354C67.6656 54.8354 69.5762 57.2183 69.5762 61.9863V69.1372L69.5784 69.1394ZM62.4149 61.9885H65.2807C65.2807 60.0813 64.8042 59.1277 63.8489 59.1277C62.8936 59.1277 62.4171 60.0813 62.4171 61.9885H62.4149Z" fill="#404040"/>
<path d="M81.8539 61.8385C82.1826 62.0213 82.4363 62.1799 82.615 62.3142C82.7937 62.4486 82.9724 62.6115 83.1511 62.8053C83.674 63.5431 83.9343 64.3998 83.9343 65.3754C83.9343 66.9104 83.3718 68.1415 82.2444 69.0731C81.042 70.0707 79.3565 70.5707 77.1856 70.5707C75.3655 70.5707 73.8432 70.128 72.6187 69.2405C71.5443 68.4653 71.0082 67.6328 71.0082 66.7387C71.0082 65.3842 71.8333 64.7059 73.4814 64.7059C74.0859 64.7059 74.7168 64.9702 75.3721 65.4988C76.0295 66.0207 76.9605 66.2806 78.1695 66.2806C79.1248 66.2806 79.6014 65.9789 79.6014 65.3754C79.6014 65.0561 78.8888 64.761 77.4636 64.4923C77.2628 64.4328 76.8171 64.3095 76.131 64.1245C75.4978 63.9615 74.986 63.8162 74.5977 63.6885C73.285 63.2634 72.3319 62.6974 71.7429 61.9905C71.2288 61.3342 70.9707 60.5634 70.9707 59.6781C70.9707 58.2488 71.5333 57.1014 72.6607 56.2381C73.8608 55.3065 75.5486 54.8418 77.7195 54.8418C79.5396 54.8418 81.0619 55.2558 82.2863 56.0817C83.3607 56.804 83.899 57.5793 83.899 58.4051C83.899 59.6715 83.0739 60.3035 81.4259 60.3035C80.8214 60.3035 80.1904 60.0569 79.5352 59.5657C78.8777 59.0746 77.9467 58.828 76.7377 58.828C75.7824 58.85 75.3059 59.1451 75.3059 59.7111C75.3059 60.0084 76.0185 60.2705 77.4437 60.4929C77.6445 60.5524 78.0879 60.6669 78.7762 60.8387C79.4094 60.995 79.9213 61.1294 80.3096 61.2417C81.0111 61.4575 81.5252 61.6579 81.8539 61.8385Z" fill="#404040"/>
<path d="M92.1965 63.42V57.7006C92.1965 56.747 92.9135 56.2713 94.3453 56.2713C95.7772 56.2713 96.4942 56.747 96.4942 57.7006V63.42C96.4942 68.1858 94.5836 70.5709 90.7647 70.5709C86.9457 70.5709 85.0352 68.188 85.0352 63.42V56.2361C85.0506 55.3045 85.7654 54.8398 87.184 54.8398C88.6026 54.8398 89.3328 55.3155 89.3328 56.2691V63.42C89.3328 65.3272 89.8094 66.2808 90.7647 66.2808C91.7199 66.2808 92.1965 65.3272 92.1965 63.42Z" fill="#404040"/>
<path d="M102.223 65.8998V69.1394C102.223 70.093 101.506 70.5687 100.075 70.5687C98.6428 70.5687 97.9412 70.104 97.9258 69.1725V56.2361C97.9412 55.3133 98.6494 54.8465 100.053 54.8398H102.223C106.998 54.8398 109.387 56.4519 109.387 59.6783C109.387 62.0172 108.136 63.5103 105.639 64.1578C107.556 66.6816 108.895 68.0647 109.656 68.3025C110.433 68.5404 110.821 69.08 110.821 69.9234C110.821 69.9829 110.817 70.0512 110.81 70.1239C110.744 71.0774 110.232 71.6963 109.277 71.9782C109.113 71.9936 108.952 72.0002 108.796 72.0002C107.326 72.0002 106.047 71.3748 104.957 70.1239C103.876 68.7981 102.965 67.3908 102.226 65.8998H102.223ZM102.223 58.4714V60.8962C104.134 60.8962 105.089 60.491 105.089 59.6783C105.089 58.8657 104.134 58.4714 102.223 58.4714Z" fill="#404040"/>
<path d="M122.278 53.4082C123.233 53.4082 123.709 54.124 123.709 55.5533C123.709 56.9825 123.233 57.6983 122.278 57.6983H116.502C115.844 57.6983 115.423 58.174 115.238 59.1276H120.844C121.799 59.1276 122.275 59.8433 122.275 61.2726C122.275 62.7019 121.799 63.4177 120.844 63.4177H115.238C115.432 64.3713 115.869 64.847 116.548 64.847H122.278C123.233 64.847 123.709 65.5627 123.709 66.992C123.709 68.4213 123.233 69.1371 122.278 69.1371H116.491C112.707 69.1371 110.816 66.7652 110.816 62.0214V60.5921C110.816 55.8021 112.727 53.4082 116.546 53.4082H122.275H122.278Z" fill="#404040"/>
<path d="M122.002 46.8409C119.644 46.8409 117.286 46.8365 114.927 46.8431C114.261 46.8431 113.614 46.7528 112.983 46.5392C111.514 46.0459 110.614 45.0218 110.265 43.5418C110.118 42.9076 110.045 42.2447 110.034 41.595C110.003 39.7252 109.994 37.8533 110.038 35.9813C110.056 35.2347 110.171 34.4749 110.354 33.7504C110.713 32.3189 111.755 31.6009 113.164 31.4314C113.996 31.3301 114.843 31.3719 115.682 31.3389C116.043 31.3256 116.407 31.3146 116.76 31.2442C117.133 31.1693 117.235 30.9424 117.113 30.5813C116.986 30.2003 116.738 29.9008 116.46 29.6101C114.892 27.9781 113.442 26.2603 112.56 24.1439C112.185 23.2432 111.962 22.3094 111.924 21.3294C111.88 20.1401 111.971 18.9729 112.372 17.8387C113.191 15.5329 114.832 14.0419 117.061 13.1346C118.117 12.7051 119.227 12.4805 120.357 12.3065C121.491 12.1325 122.622 12.1414 123.759 12.1414C127.617 12.1392 131.476 12.1303 135.334 12.148C136.281 12.1524 137.201 12.3462 138.048 12.7998C139.37 13.509 140.014 14.674 140.153 16.1055C140.371 18.3805 140.252 20.6643 140.239 22.9437C140.234 23.7431 140.148 24.5403 139.881 25.3156C139.398 26.714 138.412 27.4628 136.967 27.6104C136.085 27.6985 135.191 27.7073 134.304 27.7491C134.172 27.7557 134.039 27.7403 133.909 27.7557C133.618 27.7909 133.508 27.9275 133.536 28.2226C133.57 28.5684 133.768 28.8282 133.989 29.0771C134.534 29.6937 135.081 30.306 135.612 30.9336C136.464 31.9401 137.214 33.0192 137.812 34.1953C138.447 35.444 138.86 36.772 138.831 38.1638C138.763 41.5642 137.302 44.1585 134.139 45.6517C132.511 46.4203 130.77 46.8013 128.972 46.8277C126.646 46.8629 124.321 46.8365 121.996 46.8365V46.8409H122.002Z" fill="#404040"/>
<path d="M90.1847 12.1436C95.1465 12.1436 100.108 12.1326 105.072 12.1568C105.736 12.1612 106.418 12.2956 107.062 12.4696C108.712 12.9144 109.555 14.6234 109.169 16.1826C108.982 16.938 108.699 17.6494 108.337 18.3343C107.768 19.4068 107.195 20.4771 106.63 21.5541C105.569 23.5736 104.523 25.6019 103.455 27.617C101.893 30.5593 100.318 33.4972 98.736 36.4306C98.5087 36.8491 98.4006 37.2631 98.4073 37.7388C98.4271 39.3135 98.4779 40.8925 98.3984 42.4628C98.3014 44.3898 97.3968 45.8499 95.7069 46.4599C95.1575 46.6582 94.5574 46.8057 93.9794 46.8167C91.4423 46.8586 88.903 46.8498 86.3636 46.8365C85.4569 46.8321 84.5986 46.5789 83.8331 46.0988C82.7146 45.3962 82.1431 44.3347 81.9644 43.053C81.735 41.4057 81.8144 39.7451 81.821 38.0912C81.821 38.0097 81.8232 37.926 81.8321 37.8445C81.885 37.305 81.7416 36.8337 81.4835 36.3492C79.3611 32.3652 77.2674 28.3658 75.1583 24.3752C74.1699 22.5033 73.1463 20.6489 72.1821 18.7637C71.7144 17.8476 71.2401 16.916 71.1232 15.8699C71.0548 15.2489 71.0415 14.6278 71.3261 14.0376C71.6747 13.3152 72.2461 12.8439 72.983 12.5709C73.7596 12.2824 74.5693 12.1436 75.4032 12.1458C80.3319 12.1502 85.2627 12.148 90.1914 12.148L90.1847 12.1436Z" fill="#404040"/>
<path d="M91.9347 19.2328C91.5597 19.2724 91.1736 19.2724 90.8118 19.3605C89.2674 19.7371 88.1974 20.6445 87.7871 22.2103C87.3723 23.796 87.7871 25.1592 88.9894 26.2736C89.6248 26.8616 90.4146 27.1435 91.2618 27.2712C93.4283 27.5972 95.8331 26.3286 96.164 23.9215C96.3295 22.7102 96.0934 21.6333 95.3102 20.7039C94.4366 19.6733 93.2871 19.2218 91.9369 19.2306L91.9347 19.2328Z" fill="white"/>
<path d="M53.0863 47.6228C50.9927 47.6977 48.4908 47.2484 46.0794 46.3367C44.0652 45.5747 42.2186 44.5154 40.5639 43.1169C39.1145 41.8924 37.9055 40.4719 36.9281 38.8621C35.9089 37.1817 35.2338 35.3626 34.8035 33.4356C34.3777 31.535 34.3424 29.6256 34.4616 27.7096C34.5476 26.3023 34.8675 24.9237 35.311 23.5759C36.0192 21.4286 37.1267 19.4994 38.5739 17.7706C39.7322 16.3853 41.1243 15.2533 42.6598 14.3019C44.9278 12.8991 47.401 12.0424 50.0285 11.5887C51.8288 11.2782 53.6467 11.2495 55.4492 11.3817C58.1319 11.5799 60.6977 12.2758 63.1113 13.5069C64.7704 14.3548 66.2552 15.4317 67.6098 16.687C68.1503 17.187 68.6246 17.7662 69.0747 18.3498C70.2153 19.8275 71.1154 21.4396 71.7486 23.2015C72.2295 24.5383 72.4722 25.9235 72.7215 27.311C72.7789 27.6303 72.7657 27.965 72.7679 28.2932C72.7745 28.9164 72.7745 29.5397 72.7679 30.163C72.7326 33.266 71.8964 36.1532 70.2991 38.807C67.9032 42.791 64.3821 45.3479 59.9587 46.7133C58.86 47.0524 57.7348 47.2815 56.5876 47.44C55.5838 47.5788 54.5866 47.581 53.0885 47.614L53.0863 47.6228Z" fill="#404040"/>
<path d="M60.2821 28.2867C57.5773 27.6458 55.4153 25.4898 54.7755 22.7897C54.6453 22.2414 54.1533 21.8516 53.5885 21.8516C53.0237 21.8516 52.5318 22.2392 52.4016 22.7897C51.7618 25.4898 49.5997 27.648 46.8949 28.2867C46.3456 28.4166 45.9551 28.9078 45.9551 29.4715C45.9551 30.0353 46.3434 30.5264 46.8949 30.6564C49.5997 31.2973 51.7618 33.4533 52.4016 36.1533C52.5318 36.7017 53.0237 37.0915 53.5885 37.0915C54.1533 37.0915 54.6453 36.7039 54.7755 36.1533C55.4175 33.4533 57.5773 31.2951 60.2821 30.6564C60.8315 30.5264 61.222 30.0353 61.222 29.4715C61.222 28.9078 60.8337 28.4166 60.2821 28.2867Z" fill="white"/>
<path d="M47.3657 16.2068C47.1054 15.7355 46.5097 15.566 46.0376 15.8258C42.265 17.9092 39.4984 21.4902 38.446 25.6459C38.3137 26.1679 38.6314 26.6986 39.1542 26.8286C39.2337 26.8484 39.3153 26.8594 39.3947 26.8594C39.8315 26.8594 40.2287 26.5643 40.3412 26.1238C41.2612 22.4878 43.6814 19.3561 46.984 17.5304C47.4562 17.2706 47.626 16.6759 47.3657 16.2046V16.2068Z" fill="white"/>
<path d="M16.0621 12.1438C19.7553 12.1438 23.4507 12.1438 27.1439 12.1438C27.9116 12.1438 28.6551 12.2892 29.3677 12.5535C30.7025 13.0468 31.5474 14.0202 31.8828 15.3812C32.0505 16.0595 32.1409 16.7731 32.1453 17.4734C32.1718 20.92 32.1674 24.3666 32.1541 27.8132C32.1497 28.7999 32.0063 29.7777 31.5938 30.6895C31.0356 31.9249 30.0936 32.6892 28.7169 32.775C27.5498 32.8477 26.3783 32.8191 25.2068 32.8367C24.3199 32.8499 24.3751 32.7046 24.3729 33.645C24.3729 36.2216 24.3949 38.7983 24.3596 41.375C24.3486 42.1723 24.2559 42.9871 24.0552 43.7557C23.647 45.3194 22.5836 46.284 21.004 46.6518C20.5275 46.7641 20.0289 46.8324 19.5413 46.8368C17.1829 46.8566 14.8244 46.85 12.466 46.8434C11.5438 46.8434 10.668 46.6364 9.86269 46.1783C8.84342 45.5991 8.26098 44.6961 7.9455 43.5972C7.7668 42.9761 7.72488 42.3419 7.72708 41.6988C7.7315 39.0076 7.72708 36.3163 7.72708 33.6229C7.72708 33.5238 7.72708 33.4269 7.72708 33.3278C7.71973 33.0063 7.54985 32.8426 7.21745 32.8367C5.94889 32.8169 4.67811 32.8191 3.40955 32.7706C2.23364 32.7266 1.34896 32.1452 0.737838 31.1607C0.241443 30.3591 0.0164106 29.4628 0.0142043 28.5334C-0.00123906 24.545 -0.0210949 20.5566 0.0230292 16.5683C0.042885 14.6941 1.03568 13.071 2.98155 12.4654C3.64341 12.2584 4.32292 12.1394 5.02449 12.1416C7.43145 12.1482 9.84062 12.1438 12.2476 12.1438C13.5184 12.1438 14.7869 12.1438 16.0577 12.1438H16.0621Z" fill="#404040"/>
<path d="M27.5364 3.02388C28.5954 2.49533 29.6213 1.9866 30.6427 1.46906C31.0377 1.26865 31.4171 1.23781 31.7789 1.5153C32.1496 1.7994 32.2202 2.176 32.1275 2.62527C31.6995 4.71526 31.2847 6.80965 30.8678 8.90404C30.742 9.5361 30.4001 9.8202 29.7536 9.8224C26.334 9.8224 22.9144 9.8224 19.497 9.8224C18.8771 9.8224 18.5263 9.5295 18.4027 8.91726C17.9791 6.80304 17.5578 4.68883 17.1298 2.57461C17.0437 2.14737 17.1364 1.79059 17.4783 1.52411C17.8247 1.25543 18.1998 1.25763 18.5859 1.45144C19.6272 1.97338 20.6707 2.49313 21.7407 3.02609C22.3386 2.28171 22.9299 1.54393 23.5233 0.806162C23.6116 0.696047 23.6998 0.583729 23.7881 0.473614C24.2955 -0.149639 24.9706 -0.158448 25.4714 0.462602C26.0759 1.20918 26.6716 1.96017 27.2717 2.70895C27.3533 2.81026 27.4371 2.90936 27.5342 3.02609L27.5364 3.02388Z" fill="#404040"/>
</g>
<defs>
<clipPath id="clip0_166_1864">
<rect width="140.286" height="72" fill="white"/>
</clipPath>
</defs>
</svg>
