<svg width="220" height="128" viewBox="0 0 220 128" fill="none" xmlns="http://www.w3.org/2000/svg">
<path d="M2.03091 64.4864V73.3253C2.0103 73.8516 2 74.382 2 74.9144C2 97.6062 20.5804 116 43.5 116C66.4196 116 85 97.6042 85 74.9123V64.4844H2.03091V64.4864Z" fill="#FCB424"/>
<path d="M2.03091 64.4864V73.3253C2.0103 73.8516 2 74.382 2 74.9144C2 97.6062 20.5804 116 43.5 116C66.4196 116 85 97.6042 85 74.9123V64.4844H2.03091V64.4864Z" fill="#FCB424"/>
<path opacity="0.4" d="M84.9979 67.22V74.9145C84.9979 85.7463 80.7638 95.597 73.8472 102.937V67.22H84.9979Z" fill="#FC4C9C"/>
<path opacity="0.4" d="M50.4599 96.4333V115.423C48.1976 115.802 45.8714 116 43.4999 116C34.9205 116 26.9469 113.424 20.3311 109.005V96.4333H50.4599Z" fill="#FC4C9C"/>
<path d="M43.5 107.175C66.4198 107.175 85 88.7798 85 66.0877C85 43.3956 66.4198 25 43.5 25C20.5802 25 2 43.3956 2 66.0877C2 88.7798 20.5802 107.175 43.5 107.175Z" fill="#FCB424"/>
<path d="M43.5 107.175C66.4198 107.175 85 88.7798 85 66.0877C85 43.3956 66.4198 25 43.5 25C20.5802 25 2 43.3956 2 66.0877C2 88.7798 20.5802 107.175 43.5 107.175Z" fill="white" fill-opacity="0.4"/>
<path d="M82.8222 64.4862C82.2824 44.8726 64.8826 29.1266 43.5 29.1266C22.1175 29.1266 4.7156 44.8726 4.17578 64.4862C4.68675 43.7772 22.0969 27.1438 43.5 27.1438C64.9032 27.1438 82.3113 43.7772 82.8222 64.4862Z" fill="white"/>
<path d="M43.4979 103.43C33.2661 103.43 23.603 99.5971 16.2886 92.639C15.1245 91.5314 14.0408 90.3645 13.0415 89.1467C13.8883 90.0769 14.7908 90.9745 15.7447 91.8333C23.2094 98.5588 33.0663 102.263 43.5 102.263C53.9337 102.263 63.7905 98.5588 71.2552 91.8333C72.2092 90.9745 73.1096 90.0769 73.9585 89.1467C72.9571 90.3666 71.8734 91.5314 70.7113 92.639C63.397 99.5992 53.7338 103.43 43.5 103.43H43.4979Z" fill="white"/>
<path opacity="0.4" d="M43.5001 97.2656C60.892 97.2656 74.9908 83.3068 74.9908 66.0878C74.9908 48.8687 60.892 34.9099 43.5001 34.9099C26.1083 34.9099 12.0094 48.8687 12.0094 66.0878C12.0094 83.3068 26.1083 97.2656 43.5001 97.2656Z" fill="#FC4C9C"/>
<path d="M43.5 97.2655C60.2604 97.2655 73.8473 83.8135 73.8473 67.2198C73.8473 50.626 60.2604 37.1741 43.5 37.1741C26.7397 37.1741 13.1528 50.626 13.1528 67.2198C13.1528 83.8135 26.7397 97.2655 43.5 97.2655Z" fill="#FCB424"/>
<path opacity="0.4" d="M47.1675 61.1123C49.7183 59.8476 52.1928 58.6359 54.6529 57.3976C55.6027 56.9203 56.5196 56.8428 57.3932 57.5078C58.2874 58.1871 58.4563 59.0846 58.2359 60.1597C57.2016 65.1554 56.2085 70.1613 55.1989 75.1611C54.8939 76.6727 54.0698 77.352 52.5142 77.354C44.2768 77.3581 36.0374 77.3581 27.8001 77.354C26.3042 77.354 25.4615 76.6523 25.1648 75.1917C24.1429 70.1389 23.1313 65.086 22.0969 60.0352C21.8888 59.0173 22.1114 58.1626 22.9376 57.5221C23.77 56.8775 24.6765 56.8836 25.6058 57.3467C28.1153 58.5951 30.631 59.8374 33.2044 61.1103C34.6425 59.3335 36.0724 57.569 37.5003 55.8045C37.7146 55.5393 37.9247 55.2741 38.1411 55.011C39.3629 53.5198 40.9885 53.5014 42.1959 54.9844C43.6505 56.7673 45.0886 58.5645 46.535 60.3555C46.7307 60.5962 46.9347 60.8328 47.1696 61.1123H47.1675Z" fill="#FC4C9C"/>
<path d="M49.2669 62.7117C51.8177 61.4469 54.2922 60.2352 56.7522 58.997C57.7021 58.5197 58.6189 58.4422 59.4925 59.1072C60.3867 59.7865 60.5557 60.684 60.3352 61.759C59.3009 66.7548 58.3078 71.7607 57.2982 76.7605C56.9933 78.272 56.1692 78.9513 54.6136 78.9534C46.3762 78.9574 38.1368 78.9574 29.8994 78.9534C28.4036 78.9534 27.5609 78.2516 27.2642 76.7911C26.2423 71.7382 25.2306 66.6854 24.1963 61.6346C23.9882 60.6167 24.2107 59.762 25.0369 59.1214C25.8693 58.4768 26.7759 58.483 27.7051 58.946C30.2147 60.1944 32.7304 61.4367 35.3038 62.7096C36.7419 60.9329 38.1718 59.1684 39.5997 57.4038C39.8139 57.1387 40.0241 56.8735 40.2404 56.6103C41.4622 55.1192 43.0879 55.1008 44.2952 56.5838C45.7499 58.3667 47.188 60.1638 48.6344 61.9549C48.8301 62.1956 49.0341 62.4322 49.269 62.7117H49.2669Z" fill="#FCB424"/>
<path d="M49.2669 62.7117C51.8177 61.4469 54.2922 60.2352 56.7522 58.997C57.7021 58.5197 58.6189 58.4422 59.4925 59.1072C60.3867 59.7865 60.5557 60.684 60.3352 61.759C59.3009 66.7548 58.3078 71.7607 57.2982 76.7605C56.9933 78.272 56.1692 78.9513 54.6136 78.9534C46.3762 78.9574 38.1368 78.9574 29.8994 78.9534C28.4036 78.9534 27.5609 78.2516 27.2642 76.7911C26.2423 71.7382 25.2306 66.6854 24.1963 61.6346C23.9882 60.6167 24.2107 59.762 25.0369 59.1214C25.8693 58.4768 26.7759 58.483 27.7051 58.946C30.2147 60.1944 32.7304 61.4367 35.3038 62.7096C36.7419 60.9329 38.1718 59.1684 39.5997 57.4038C39.8139 57.1387 40.0241 56.8735 40.2404 56.6103C41.4622 55.1192 43.0879 55.1008 44.2952 56.5838C45.7499 58.3667 47.188 60.1638 48.6344 61.9549C48.8301 62.1956 49.0341 62.4322 49.269 62.7117H49.2669Z" fill="white" fill-opacity="0.4"/>
<path d="M55.0505 59.8476C53.1488 60.7961 51.2326 61.7386 49.267 62.7116C49.0321 62.4321 48.8282 62.1955 48.6345 61.9548C47.1881 60.1638 45.75 58.3666 44.2953 56.5837C43.0859 55.1028 41.4603 55.1211 40.2385 56.6123C40.0242 56.8734 39.814 57.1406 39.5998 57.4058C38.1699 59.1703 36.742 60.9348 35.3018 62.7116C32.7284 61.4367 30.2148 60.1964 27.7032 58.9459C26.7739 58.4849 25.8674 58.4788 25.035 59.1214C24.2088 59.7619 23.9863 60.6166 24.1944 61.6345C25.1545 66.3222 26.0961 71.014 27.0439 75.7037C28.9827 76.1097 31.0327 76.3259 33.1549 76.3259C45.2596 76.3259 55.0731 69.2678 55.0731 60.5615C55.0731 60.3229 55.0649 60.0842 55.0505 59.8476Z" fill="#FCB424"/>
<path d="M55.0505 59.8476C53.1488 60.7961 51.2326 61.7386 49.267 62.7116C49.0321 62.4321 48.8282 62.1955 48.6345 61.9548C47.1881 60.1638 45.75 58.3666 44.2953 56.5837C43.0859 55.1028 41.4603 55.1211 40.2385 56.6123C40.0242 56.8734 39.814 57.1406 39.5998 57.4058C38.1699 59.1703 36.742 60.9348 35.3018 62.7116C32.7284 61.4367 30.2148 60.1964 27.7032 58.9459C26.7739 58.4849 25.8674 58.4788 25.035 59.1214C24.2088 59.7619 23.9863 60.6166 24.1944 61.6345C25.1545 66.3222 26.0961 71.014 27.0439 75.7037C28.9827 76.1097 31.0327 76.3259 33.1549 76.3259C45.2596 76.3259 55.0731 69.2678 55.0731 60.5615C55.0731 60.3229 55.0649 60.0842 55.0505 59.8476Z" fill="white" fill-opacity="0.4"/>
<path d="M55.0731 60.5615C55.0731 69.2678 45.2596 76.3259 33.1549 76.3259C31.0327 76.3259 28.9827 76.1097 27.0439 75.7037C26.0961 71.014 25.1545 66.3222 24.1944 61.6345C23.9863 60.6166 24.2088 59.7619 25.035 59.1214C25.8674 58.4788 26.7739 58.4849 27.7032 58.9459C30.2148 60.1964 32.7284 61.4367 35.3018 62.7116C36.742 60.9348 38.1699 59.1703 39.5998 57.4058C39.814 57.1406 40.0242 56.8734 40.2385 56.6123C41.4603 55.1211 43.0859 55.1028 44.2953 56.5837C45.75 58.3666 47.1881 60.1638 48.6345 61.9548C48.8282 62.1955 49.0321 62.4321 49.267 62.7116C51.2326 61.7386 53.1488 60.7961 55.0505 59.8476C55.0649 60.0842 55.0731 60.3229 55.0731 60.5615Z" fill="white"/>
<path d="M25.5068 33.8247L27.2788 41.3417L34.8712 43.0961L27.2788 44.8504L25.5068 52.3674L23.7349 44.8504L16.1425 43.0961L23.7349 41.3417L25.5068 33.8247Z" fill="white"/>
<path d="M29.8873 38.759L27.1635 43.0959L29.8873 47.4347L25.5069 44.738L21.1245 47.4347L23.8483 43.0959L21.1245 38.759L25.5069 41.4558L29.8873 38.759Z" fill="white"/>
<path d="M134.031 64.4864V73.3253C134.01 73.8516 134 74.382 134 74.9144C134 97.6062 152.58 116 175.5 116C198.42 116 217 97.6042 217 74.9123V64.4844H134.031V64.4864Z" fill="#FCB424"/>
<path d="M134.031 64.4864V73.3253C134.01 73.8516 134 74.382 134 74.9144C134 97.6062 152.58 116 175.5 116C198.42 116 217 97.6042 217 74.9123V64.4844H134.031V64.4864Z" fill="#FCB424"/>
<path opacity="0.4" d="M216.998 67.22V74.9145C216.998 85.7463 212.764 95.597 205.847 102.937V67.22H216.998Z" fill="#FC4C9C"/>
<path opacity="0.4" d="M182.46 96.4333V115.423C180.198 115.802 177.871 116 175.5 116C166.921 116 158.947 113.424 152.331 109.005V96.4333H182.46Z" fill="#FC4C9C"/>
<path d="M175.5 107.175C198.42 107.175 217 88.7798 217 66.0877C217 43.3956 198.42 25 175.5 25C152.58 25 134 43.3956 134 66.0877C134 88.7798 152.58 107.175 175.5 107.175Z" fill="#FCB424"/>
<path d="M175.5 107.175C198.42 107.175 217 88.7798 217 66.0877C217 43.3956 198.42 25 175.5 25C152.58 25 134 43.3956 134 66.0877C134 88.7798 152.58 107.175 175.5 107.175Z" fill="white" fill-opacity="0.4"/>
<path d="M214.822 64.4862C214.282 44.8726 196.883 29.1266 175.5 29.1266C154.117 29.1266 136.716 44.8726 136.176 64.4862C136.687 43.7772 154.097 27.1438 175.5 27.1438C196.903 27.1438 214.311 43.7772 214.822 64.4862Z" fill="white"/>
<path d="M175.498 103.43C165.266 103.43 155.603 99.5971 148.289 92.639C147.125 91.5314 146.041 90.3645 145.042 89.1467C145.888 90.0769 146.791 90.9745 147.745 91.8333C155.209 98.5588 165.066 102.263 175.5 102.263C185.934 102.263 195.791 98.5588 203.255 91.8333C204.209 90.9745 205.11 90.0769 205.958 89.1467C204.957 90.3666 203.873 91.5314 202.711 92.639C195.397 99.5992 185.734 103.43 175.5 103.43H175.498Z" fill="white"/>
<path opacity="0.4" d="M175.5 97.2656C192.892 97.2656 206.991 83.3068 206.991 66.0878C206.991 48.8687 192.892 34.9099 175.5 34.9099C158.108 34.9099 144.009 48.8687 144.009 66.0878C144.009 83.3068 158.108 97.2656 175.5 97.2656Z" fill="#FC4C9C"/>
<path d="M175.5 97.2655C192.26 97.2655 205.847 83.8135 205.847 67.2198C205.847 50.626 192.26 37.1741 175.5 37.1741C158.74 37.1741 145.153 50.626 145.153 67.2198C145.153 83.8135 158.74 97.2655 175.5 97.2655Z" fill="#FCB424"/>
<path opacity="0.4" d="M179.168 61.1123C181.718 59.8476 184.193 58.6359 186.653 57.3976C187.603 56.9203 188.52 56.8428 189.393 57.5078C190.287 58.1871 190.456 59.0846 190.236 60.1597C189.202 65.1554 188.208 70.1613 187.199 75.1611C186.894 76.6727 186.07 77.352 184.514 77.354C176.277 77.3581 168.037 77.3581 159.8 77.354C158.304 77.354 157.462 76.6523 157.165 75.1917C156.143 70.1389 155.131 65.086 154.097 60.0352C153.889 59.0173 154.111 58.1626 154.938 57.5221C155.77 56.8775 156.677 56.8836 157.606 57.3467C160.115 58.5951 162.631 59.8374 165.204 61.1103C166.643 59.3335 168.072 57.569 169.5 55.8045C169.715 55.5393 169.925 55.2741 170.141 55.011C171.363 53.5198 172.988 53.5014 174.196 54.9844C175.65 56.7673 177.089 58.5645 178.535 60.3555C178.731 60.5962 178.935 60.8328 179.17 61.1123H179.168Z" fill="#FC4C9C"/>
<path d="M181.267 62.7117C183.818 61.4469 186.292 60.2352 188.752 58.997C189.702 58.5197 190.619 58.4422 191.493 59.1072C192.387 59.7865 192.556 60.684 192.335 61.759C191.301 66.7548 190.308 71.7607 189.298 76.7605C188.993 78.272 188.169 78.9513 186.614 78.9534C178.376 78.9574 170.137 78.9574 161.899 78.9534C160.404 78.9534 159.561 78.2516 159.264 76.7911C158.242 71.7382 157.231 66.6854 156.196 61.6346C155.988 60.6167 156.211 59.762 157.037 59.1214C157.869 58.4768 158.776 58.483 159.705 58.946C162.215 60.1944 164.73 61.4367 167.304 62.7096C168.742 60.9329 170.172 59.1684 171.6 57.4038C171.814 57.1387 172.024 56.8735 172.24 56.6103C173.462 55.1192 175.088 55.1008 176.295 56.5838C177.75 58.3667 179.188 60.1638 180.634 61.9549C180.83 62.1956 181.034 62.4322 181.269 62.7117H181.267Z" fill="#FCB424"/>
<path d="M181.267 62.7117C183.818 61.4469 186.292 60.2352 188.752 58.997C189.702 58.5197 190.619 58.4422 191.493 59.1072C192.387 59.7865 192.556 60.684 192.335 61.759C191.301 66.7548 190.308 71.7607 189.298 76.7605C188.993 78.272 188.169 78.9513 186.614 78.9534C178.376 78.9574 170.137 78.9574 161.899 78.9534C160.404 78.9534 159.561 78.2516 159.264 76.7911C158.242 71.7382 157.231 66.6854 156.196 61.6346C155.988 60.6167 156.211 59.762 157.037 59.1214C157.869 58.4768 158.776 58.483 159.705 58.946C162.215 60.1944 164.73 61.4367 167.304 62.7096C168.742 60.9329 170.172 59.1684 171.6 57.4038C171.814 57.1387 172.024 56.8735 172.24 56.6103C173.462 55.1192 175.088 55.1008 176.295 56.5838C177.75 58.3667 179.188 60.1638 180.634 61.9549C180.83 62.1956 181.034 62.4322 181.269 62.7117H181.267Z" fill="white" fill-opacity="0.4"/>
<path d="M187.05 59.8476C185.149 60.7961 183.233 61.7386 181.267 62.7116C181.032 62.4321 180.828 62.1955 180.634 61.9548C179.188 60.1638 177.75 58.3666 176.295 56.5837C175.086 55.1028 173.46 55.1211 172.238 56.6123C172.024 56.8734 171.814 57.1406 171.6 57.4058C170.17 59.1703 168.742 60.9348 167.302 62.7116C164.728 61.4367 162.215 60.1964 159.703 58.9459C158.774 58.4849 157.867 58.4788 157.035 59.1214C156.209 59.7619 155.986 60.6166 156.194 61.6345C157.154 66.3222 158.096 71.014 159.044 75.7037C160.983 76.1097 163.033 76.3259 165.155 76.3259C177.26 76.3259 187.073 69.2678 187.073 60.5615C187.073 60.3229 187.065 60.0842 187.05 59.8476Z" fill="#FCB424"/>
<path d="M187.05 59.8476C185.149 60.7961 183.233 61.7386 181.267 62.7116C181.032 62.4321 180.828 62.1955 180.634 61.9548C179.188 60.1638 177.75 58.3666 176.295 56.5837C175.086 55.1028 173.46 55.1211 172.238 56.6123C172.024 56.8734 171.814 57.1406 171.6 57.4058C170.17 59.1703 168.742 60.9348 167.302 62.7116C164.728 61.4367 162.215 60.1964 159.703 58.9459C158.774 58.4849 157.867 58.4788 157.035 59.1214C156.209 59.7619 155.986 60.6166 156.194 61.6345C157.154 66.3222 158.096 71.014 159.044 75.7037C160.983 76.1097 163.033 76.3259 165.155 76.3259C177.26 76.3259 187.073 69.2678 187.073 60.5615C187.073 60.3229 187.065 60.0842 187.05 59.8476Z" fill="white" fill-opacity="0.4"/>
<path d="M187.073 60.5615C187.073 69.2678 177.26 76.3259 165.155 76.3259C163.033 76.3259 160.983 76.1097 159.044 75.7037C158.096 71.014 157.154 66.3222 156.194 61.6345C155.986 60.6166 156.209 59.7619 157.035 59.1214C157.867 58.4788 158.774 58.4849 159.703 58.9459C162.215 60.1964 164.728 61.4367 167.302 62.7116C168.742 60.9348 170.17 59.1703 171.6 57.4058C171.814 57.1406 172.024 56.8734 172.238 56.6123C173.46 55.1211 175.086 55.1028 176.295 56.5837C177.75 58.3666 179.188 60.1638 180.634 61.9548C180.828 62.1955 181.032 62.4321 181.267 62.7116C183.233 61.7386 185.149 60.7961 187.05 59.8476C187.065 60.0842 187.073 60.3229 187.073 60.5615Z" fill="white"/>
<path d="M157.507 33.8247L159.279 41.3417L166.871 43.0961L159.279 44.8504L157.507 52.3674L155.735 44.8504L148.142 43.0961L155.735 41.3417L157.507 33.8247Z" fill="white"/>
<path d="M161.887 38.759L159.163 43.0959L161.887 47.4347L157.507 44.738L153.125 47.4347L155.848 43.0959L153.125 38.759L157.507 41.4558L161.887 38.759Z" fill="white"/>
<path d="M56.0405 56.0701V67.7258C56.0135 68.4198 56 69.1192 56 69.8213C56 99.7446 80.3228 124 110.326 124C140.329 124 164.651 99.7419 164.651 69.8186V56.0674H56.0405V56.0701Z" fill="#FCB424"/>
<path d="M56.0405 56.0701V67.7258C56.0135 68.4198 56 69.1192 56 69.8213C56 99.7446 80.3228 124 110.326 124C140.329 124 164.651 99.7419 164.651 69.8186V56.0674H56.0405V56.0701Z" fill="#FCB424"/>
<path opacity="0.4" d="M164.649 59.6746V69.8212C164.649 84.105 159.106 97.0949 150.052 106.773V59.6746H164.649Z" fill="#FC4C9C"/>
<path opacity="0.4" d="M119.437 98.1978V123.239C116.475 123.739 113.43 124 110.326 124C99.0947 124 88.6568 120.603 79.9963 114.776V98.1978H119.437Z" fill="#FC4C9C"/>
<path d="M110.326 112.363C140.329 112.363 164.651 88.1052 164.651 58.1816C164.651 28.2579 140.329 4 110.326 4C80.3224 4 56 28.2579 56 58.1816C56 88.1052 80.3224 112.363 110.326 112.363Z" fill="#FCB424"/>
<path d="M110.326 112.363C140.329 112.363 164.651 88.1052 164.651 58.1816C164.651 28.2579 140.329 4 110.326 4C80.3224 4 56 28.2579 56 58.1816C56 88.1052 80.3224 112.363 110.326 112.363Z" fill="white" fill-opacity="0.4"/>
<path d="M161.8 56.0699C161.094 30.2058 138.317 9.44181 110.326 9.44181C82.3348 9.44181 59.5548 30.2058 58.8481 56.0699C59.517 28.7612 82.3078 6.82715 110.326 6.82715C138.343 6.82715 161.132 28.7612 161.8 56.0699Z" fill="white"/>
<path d="M110.323 107.424C96.9289 107.424 84.2794 102.37 74.7045 93.1944C73.1807 91.7337 71.762 90.195 70.4539 88.5891C71.5624 89.8157 72.7437 90.9993 73.9925 92.1318C83.7642 101.001 96.6673 105.886 110.326 105.886C123.984 105.886 136.887 101.001 146.659 92.1318C147.907 90.9993 149.086 89.8157 150.197 88.5891C148.887 90.1977 147.468 91.7337 145.947 93.1944C136.372 102.373 123.722 107.424 110.326 107.424H110.323Z" fill="white"/>
<path opacity="0.4" d="M110.326 99.2952C133.093 99.2952 151.549 80.888 151.549 58.1815C151.549 35.4751 133.093 17.0679 110.326 17.0679C87.5589 17.0679 69.1028 35.4751 69.1028 58.1815C69.1028 80.888 87.5589 99.2952 110.326 99.2952Z" fill="#FC4C9C"/>
<path d="M110.326 99.2951C132.266 99.2951 150.052 81.5563 150.052 59.6744C150.052 37.7925 132.266 20.0537 110.326 20.0537C88.3856 20.0537 70.5996 37.7925 70.5996 59.6744C70.5996 81.5563 88.3856 99.2951 110.326 99.2951Z" fill="#FCB424"/>
<path opacity="0.4" d="M115.127 51.6207C118.466 49.9529 121.705 48.3551 124.925 46.7223C126.169 46.0928 127.369 45.9906 128.513 46.8675C129.683 47.7633 129.904 48.9469 129.616 50.3645C128.262 56.9523 126.962 63.5535 125.64 70.1466C125.241 72.1399 124.162 73.0356 122.126 73.0383C111.343 73.0437 100.557 73.0437 89.7736 73.0383C87.8155 73.0383 86.7123 72.113 86.3239 70.187C84.9862 63.5239 83.6619 56.8608 82.3079 50.2004C82.0355 48.8581 82.3268 47.731 83.4083 46.8863C84.498 46.0363 85.6847 46.0444 86.9011 46.655C90.1862 48.3013 93.4794 49.9395 96.8482 51.618C98.7308 49.2751 100.603 46.9482 102.472 44.6214C102.752 44.2717 103.027 43.922 103.31 43.575C104.91 41.6086 107.038 41.5844 108.618 43.54C110.523 45.8911 112.405 48.2609 114.299 50.6227C114.555 50.9402 114.822 51.2522 115.129 51.6207H115.127Z" fill="#FC4C9C"/>
<path d="M117.875 53.7296C121.214 52.0618 124.453 50.464 127.674 48.8311C128.917 48.2017 130.117 48.0995 131.261 48.9764C132.431 49.8722 132.653 51.0558 132.364 52.4734C131.01 59.0611 129.71 65.6624 128.388 72.2555C127.989 74.2488 126.91 75.1445 124.874 75.1472C114.091 75.1526 103.305 75.1526 92.5219 75.1472C90.5637 75.1472 89.4606 74.2219 89.0722 72.2958C87.7345 65.6328 86.4102 58.9697 85.0562 52.3093C84.7838 50.967 85.0751 49.8399 86.1566 48.9952C87.2463 48.1452 88.433 48.1533 89.6494 48.7639C92.9345 50.4102 96.2277 52.0484 99.5964 53.7269C101.479 51.3839 103.351 49.0571 105.22 46.7303C105.5 46.3806 105.776 46.0309 106.059 45.6839C107.658 43.7175 109.786 43.6933 111.367 45.6489C113.271 47.9999 115.154 50.3698 117.047 52.7316C117.303 53.049 117.57 53.3611 117.878 53.7296H117.875Z" fill="#FCB424"/>
<path d="M117.875 53.7296C121.214 52.0618 124.453 50.464 127.674 48.8311C128.917 48.2017 130.117 48.0995 131.261 48.9764C132.431 49.8722 132.653 51.0558 132.364 52.4734C131.01 59.0611 129.71 65.6624 128.388 72.2555C127.989 74.2488 126.91 75.1445 124.874 75.1472C114.091 75.1526 103.305 75.1526 92.5219 75.1472C90.5637 75.1472 89.4606 74.2219 89.0722 72.2958C87.7345 65.6328 86.4102 58.9697 85.0562 52.3093C84.7838 50.967 85.0751 49.8399 86.1566 48.9952C87.2463 48.1452 88.433 48.1533 89.6494 48.7639C92.9345 50.4102 96.2277 52.0484 99.5964 53.7269C101.479 51.3839 103.351 49.0571 105.22 46.7303C105.5 46.3806 105.776 46.0309 106.059 45.6839C107.658 43.7175 109.786 43.6933 111.367 45.6489C113.271 47.9999 115.154 50.3698 117.047 52.7316C117.303 53.049 117.57 53.3611 117.878 53.7296H117.875Z" fill="white" fill-opacity="0.4"/>
<path d="M125.446 49.953C122.956 51.2038 120.448 52.4466 117.875 53.7297C117.567 53.3612 117.3 53.0491 117.047 52.7317C115.154 50.3699 113.271 48 111.367 45.649C109.784 43.6961 107.655 43.7203 106.056 45.6867C105.776 46.031 105.5 46.3834 105.22 46.7331C103.348 49.0599 101.479 51.3867 99.5938 53.7297C96.225 52.0485 92.9345 50.413 89.6467 48.764C88.4303 48.1561 87.2436 48.148 86.1539 48.9953C85.0724 49.84 84.7811 50.9671 85.0535 52.3094C86.3104 58.491 87.543 64.6779 88.7836 70.8622C91.3217 71.3975 94.0053 71.6826 96.7834 71.6826C112.629 71.6826 125.475 62.3753 125.475 50.8945C125.475 50.5797 125.465 50.265 125.446 49.953Z" fill="#FCB424"/>
<path d="M125.446 49.953C122.956 51.2038 120.448 52.4466 117.875 53.7297C117.567 53.3612 117.3 53.0491 117.047 52.7317C115.154 50.3699 113.271 48 111.367 45.649C109.784 43.6961 107.655 43.7203 106.056 45.6867C105.776 46.031 105.5 46.3834 105.22 46.7331C103.348 49.0599 101.479 51.3867 99.5938 53.7297C96.225 52.0485 92.9345 50.413 89.6467 48.764C88.4303 48.1561 87.2436 48.148 86.1539 48.9953C85.0724 49.84 84.7811 50.9671 85.0535 52.3094C86.3104 58.491 87.543 64.6779 88.7836 70.8622C91.3217 71.3975 94.0053 71.6826 96.7834 71.6826C112.629 71.6826 125.475 62.3753 125.475 50.8945C125.475 50.5797 125.465 50.265 125.446 49.953Z" fill="white" fill-opacity="0.4"/>
<path d="M125.475 50.8945C125.475 62.3753 112.629 71.6826 96.7834 71.6826C94.0053 71.6826 91.3217 71.3975 88.7836 70.8622C87.543 64.6779 86.3104 58.491 85.0535 52.3094C84.7811 50.9671 85.0724 49.84 86.1539 48.9953C87.2436 48.148 88.4303 48.1561 89.6467 48.764C92.9345 50.413 96.225 52.0485 99.5938 53.7297C101.479 51.3867 103.348 49.0599 105.22 46.7331C105.5 46.3834 105.776 46.031 106.056 45.6867C107.655 43.7203 109.784 43.6961 111.367 45.649C113.271 48 115.154 50.3699 117.047 52.7317C117.3 53.0491 117.567 53.3612 117.875 53.7297C120.448 52.4466 122.956 51.2038 125.446 49.953C125.465 50.265 125.475 50.5797 125.475 50.8945Z" fill="white"/>
<path d="M86.7717 15.6367L89.0912 25.5493L99.0301 27.8627L89.0912 30.1761L86.7717 40.0886L84.4521 30.1761L74.5132 27.8627L84.4521 25.5493L86.7717 15.6367Z" fill="white"/>
<path d="M92.5058 22.144L88.9402 27.8629L92.5058 33.5845L86.7717 30.0284L81.0349 33.5845L84.6005 27.8629L81.0349 22.144L86.7717 25.7002L92.5058 22.144Z" fill="white"/>
</svg>
