<svg width="72" height="32" viewBox="0 0 72 32" fill="none" xmlns="http://www.w3.org/2000/svg">
<g id="Layer_1" clip-path="url(#clip0_2092_20435)">
<g id="Group 33817">
<g id="Group">
<path id="Vector" d="M34.1785 10.5318C31.4256 17.4134 27.6947 23.7433 22.9942 29.5216C22.2299 30.3954 21.1534 31.0759 19.9741 31.5188C19.9207 31.5389 19.8714 31.5551 19.818 31.5712C18.1785 32.147 16.3665 32.143 14.7271 31.5712C14.6737 31.5551 14.6244 31.5389 14.5751 31.5188C14.423 31.4624 14.2751 31.402 14.1272 31.3376C13.1287 30.8987 12.2248 30.2826 11.5591 29.5216C6.85446 23.7433 3.12359 17.4134 0.370636 10.5318C0.0213805 9.5694 -0.069015 8.47414 0.0542516 7.38694C0.292567 5.28501 1.43484 3.36026 3.1729 2.11199C3.18111 2.11199 3.18933 2.09991 3.20166 2.09589C4.08918 1.46772 5.08353 1.01271 6.0861 0.827482C13.5478 -0.275827 21.0055 -0.275827 28.4631 0.827482C29.4821 1.00868 30.4929 1.48383 31.3927 2.1281C33.2417 3.46496 34.3922 5.56285 34.5278 7.80974C34.5853 8.75601 34.4785 9.69423 34.1785 10.5318Z" fill="#736E79"/>
<path id="Vector_2" d="M30.4228 4.54395V5.24459C30.4228 7.0888 29.9996 8.55854 29.1573 9.64172C28.3191 10.7249 26.9262 11.2685 24.9868 11.2685H21.1696C20.6026 11.2685 20.1876 11.4416 19.9205 11.7799C19.6658 12.1141 19.5302 12.6215 19.522 13.306V13.3664L19.8178 31.571C18.1784 32.1468 16.3663 32.1428 14.7269 31.571L15.0227 13.3664C15.0227 12.6496 14.8871 12.1222 14.6242 11.7799C14.3571 11.4416 13.9421 11.2685 13.3751 11.2685H9.55792C7.61853 11.2685 6.22973 10.7289 5.3874 9.64172C4.54508 8.55854 4.12598 7.09283 4.12598 5.24459V4.54395H8.2965V5.24459C8.2965 5.76403 8.41154 6.12643 8.64164 6.33582C8.86763 6.54118 9.19223 6.64184 9.61545 6.64184H14.09C16.0294 6.64184 17.4182 7.18545 18.2605 8.26862C18.9755 9.19073 19.3823 10.3867 19.4891 11.8524C19.485 10.0243 19.0659 8.57062 18.2318 7.4955C18.1208 7.35054 17.9976 7.21766 17.8661 7.09283C18.581 6.79486 19.4439 6.64184 20.4588 6.64184H24.9334C25.3525 6.64184 25.6771 6.54118 25.9072 6.33179C26.1332 6.12643 26.2482 5.76403 26.2482 5.24459V4.54395H30.4228Z" fill="white"/>
</g>
<g id="Group_2">
<path id="Vector_3" d="M42.2231 9.54128C42.1163 9.54128 42.0588 9.59765 42.0588 9.71443V13.2096C42.0588 13.5398 42.1368 13.7733 42.2971 13.9142C42.4532 14.0552 42.708 14.1236 43.0531 14.1236H43.8502C43.9201 14.1236 43.9735 14.1478 44.0146 14.1961C44.0557 14.2444 44.0721 14.3008 44.0721 14.3693L44.0557 15.2551C44.0557 15.4404 43.9489 15.5531 43.7311 15.6014C43.5544 15.6216 43.3654 15.6377 43.1599 15.6538C42.9586 15.6699 42.7573 15.6779 42.5518 15.682C42.3505 15.686 42.1533 15.69 41.9684 15.69C41.2986 15.69 40.7645 15.533 40.37 15.2189C39.9756 14.9048 39.7783 14.4377 39.7783 13.8216V9.76275C39.7783 9.61779 39.7126 9.54531 39.5852 9.54531H38.6813C38.4923 9.54531 38.4019 9.46477 38.4019 9.29968V8.22858C38.4019 8.08362 38.4923 8.01114 38.6689 8.01114H39.6879C39.7783 8.01114 39.8276 7.9588 39.8359 7.85007L40.0413 5.64748C40.0495 5.48239 40.1235 5.40186 40.2632 5.40186H41.8739C42.03 5.40186 42.1122 5.49447 42.1122 5.67567V7.85007C42.1122 7.94672 42.1615 7.99504 42.2601 7.99504H43.8133C43.9899 7.99504 44.0803 8.07154 44.0803 8.22858V9.29968C44.0803 9.46477 43.9817 9.54531 43.7845 9.54531H42.2149L42.2231 9.54128Z" fill="#736E79"/>
<path id="Vector_4" d="M47.3183 13.4468C47.4909 13.7206 47.721 13.934 48.0127 14.083C48.3045 14.232 48.6332 14.3085 48.9948 14.3085C49.3563 14.3085 49.6768 14.232 49.9768 14.083C50.2767 13.934 50.5808 13.6844 50.8848 13.3381C50.9259 13.2978 50.9588 13.2777 50.9876 13.2737C51.0163 13.2696 51.0697 13.2857 51.1519 13.326L52.2161 13.7609C52.3558 13.8173 52.3681 13.9139 52.2613 14.0508C51.9449 14.4938 51.6162 14.8481 51.2711 15.1098C50.9259 15.3716 50.5438 15.5568 50.1247 15.6695C49.7056 15.7823 49.2331 15.8346 48.7112 15.8346C47.9429 15.8346 47.2567 15.6695 46.6568 15.3434C46.0569 15.0172 45.5803 14.5582 45.231 13.9743C44.8818 13.3904 44.7051 12.722 44.7051 11.965C44.7051 11.1355 44.8859 10.4107 45.2433 9.79865C45.6008 9.18659 46.0857 8.70742 46.6856 8.36918C47.2855 8.03094 47.947 7.86182 48.666 7.86182C49.4262 7.86182 50.0918 8.02288 50.663 8.34904C51.2341 8.67118 51.6861 9.13425 52.0148 9.73422C52.3435 10.3342 52.512 11.063 52.512 11.9247C52.512 12.0294 52.5037 12.114 52.4832 12.1704C52.4627 12.2267 52.3887 12.263 52.2613 12.271H47.232C47.1745 12.271 47.1293 12.2912 47.1006 12.3274C47.0718 12.3677 47.0554 12.424 47.0554 12.5005C47.0554 12.8589 47.1416 13.173 47.3142 13.4508L47.3183 13.4468ZM50.0343 11.0469C50.1411 11.0469 50.211 11.0348 50.2397 11.0107C50.2685 10.9865 50.2849 10.9301 50.2849 10.8456C50.2849 10.604 50.2274 10.3584 50.1165 10.1047C50.0014 9.85502 49.8371 9.64161 49.6152 9.47249C49.3933 9.30337 49.1098 9.21881 48.7647 9.21881C48.4401 9.21881 48.1483 9.29531 47.8936 9.45235C47.6388 9.60537 47.4416 9.82281 47.3019 10.0966C47.1622 10.3704 47.0964 10.6845 47.0964 11.0308L50.0384 11.0469H50.0343Z" fill="#736E79"/>
<path id="Vector_5" d="M58.946 8.18431C59.3939 8.40175 59.7637 8.67959 60.0472 9.01783C60.3348 9.35607 60.5362 9.70237 60.6553 10.0607C60.7252 10.254 60.6636 10.3547 60.4787 10.3668L58.9255 10.5117C58.8187 10.5198 58.7447 10.4674 58.7036 10.3507C58.6132 10.1654 58.5146 9.99632 58.4078 9.8433C58.3009 9.69029 58.1654 9.56144 58.0092 9.4648C57.8531 9.36815 57.6435 9.31983 57.3888 9.31983C57.0518 9.31983 56.756 9.41245 56.5013 9.59365C56.2465 9.77888 56.0452 10.0567 55.9014 10.4272C55.7576 10.7976 55.6877 11.2687 55.6877 11.8405C55.6877 12.4123 55.7617 12.8995 55.9096 13.274C56.0575 13.6525 56.2671 13.9304 56.5382 14.1156C56.8094 14.3008 57.134 14.3894 57.5079 14.3894C57.9435 14.3894 58.2845 14.2767 58.5352 14.0552C58.7858 13.8337 59.0241 13.5317 59.2542 13.1573C59.283 13.1089 59.3117 13.0808 59.3446 13.0687C59.3734 13.0606 59.4268 13.0646 59.509 13.0848L60.6019 13.3304C60.7088 13.3586 60.7457 13.4512 60.7046 13.6042C60.6266 13.8176 60.5033 14.0552 60.3348 14.3129C60.1664 14.5746 59.9486 14.8162 59.6774 15.0377C59.4062 15.2592 59.0775 15.4444 58.6872 15.5974C58.2968 15.7464 57.8408 15.8229 57.3189 15.8229C56.5588 15.8229 55.8849 15.6578 55.2932 15.3236C54.7016 14.9894 54.2373 14.5263 53.8962 13.9304C53.5552 13.3344 53.3867 12.6459 53.3867 11.8647C53.3867 11.0835 53.5593 10.3748 53.9044 9.77082C54.2496 9.16682 54.718 8.6957 55.3097 8.35746C55.9014 8.01922 56.5711 7.8501 57.323 7.8501C57.964 7.8501 58.5064 7.95882 58.9584 8.17626L58.946 8.18431Z" fill="#736E79"/>
<path id="Vector_6" d="M61.8965 15.3959V5.20838C61.8965 5.02316 61.9746 4.93457 62.1348 4.93457H63.9098C64.0578 4.93457 64.1317 5.0151 64.1317 5.1802V8.89279C64.1317 8.94917 64.1482 8.98541 64.1769 9.00151C64.2057 9.01762 64.2509 9.00151 64.3084 8.94917C64.6125 8.67938 64.9042 8.46597 65.1754 8.31295C65.4466 8.15994 65.7178 8.04317 65.9889 7.97069C66.2601 7.8982 66.5354 7.86196 66.8107 7.86196C67.5585 7.86196 68.1379 8.0633 68.5406 8.46999C68.9432 8.87669 69.1487 9.44445 69.1487 10.1813V15.3435C69.1487 15.5771 69.0295 15.6898 68.7953 15.6898H67.1517C67.0531 15.6898 66.9833 15.6697 66.9381 15.6254C66.8929 15.5811 66.8723 15.5086 66.8723 15.3999V10.4994C66.8723 10.1693 66.782 9.91557 66.6053 9.7384C66.4286 9.56122 66.1615 9.46861 65.8081 9.46861C65.6027 9.46861 65.4096 9.50082 65.2329 9.56928C65.0562 9.63773 64.8836 9.73437 64.7152 9.86725C64.5467 9.9961 64.37 10.1652 64.181 10.3666V15.3516C64.181 15.573 64.0536 15.6858 63.7948 15.6858H62.2129C62.0074 15.6858 61.9006 15.5892 61.9006 15.3959H61.8965Z" fill="#736E79"/>
<path id="Vector_7" d="M42.2231 25.6477C42.1163 25.6477 42.0588 25.7041 42.0588 25.8209V29.316C42.0588 29.6462 42.1368 29.8798 42.2971 30.0207C42.4532 30.1616 42.708 30.2301 43.0531 30.2301H43.8502C43.9201 30.2301 43.9735 30.2542 44.0146 30.3026C44.0557 30.3509 44.0721 30.4073 44.0721 30.4757L44.0557 31.3616C44.0557 31.5468 43.9489 31.6596 43.7311 31.7079C43.5544 31.728 43.3654 31.7441 43.1599 31.7602C42.9586 31.7763 42.7573 31.7844 42.5518 31.7884C42.3505 31.7924 42.1533 31.7965 41.9684 31.7965C41.2986 31.7965 40.7645 31.6394 40.37 31.3253C39.9756 31.0113 39.7783 30.5442 39.7783 29.9281V25.8692C39.7783 25.7242 39.7126 25.6518 39.5852 25.6518H38.6813C38.4923 25.6518 38.4019 25.5712 38.4019 25.4061V24.335C38.4019 24.1901 38.4923 24.1176 38.6689 24.1176H39.6879C39.7783 24.1176 39.8276 24.0652 39.8359 23.9565L40.0413 21.7539C40.0495 21.5888 40.1235 21.5083 40.2632 21.5083H41.8739C42.03 21.5083 42.1122 21.6009 42.1122 21.7821V23.9565C42.1122 24.0532 42.1615 24.1015 42.2601 24.1015H43.8133C43.9899 24.1015 44.0803 24.178 44.0803 24.335V25.4061C44.0803 25.5712 43.9817 25.6518 43.7845 25.6518H42.2149L42.2231 25.6477Z" fill="#736E79"/>
<path id="Vector_8" d="M45.3869 31.7199C45.3376 31.6715 45.313 31.5991 45.313 31.5024V24.3832C45.313 24.198 45.3911 24.1094 45.5513 24.1094H47.2811C47.4373 24.1094 47.5195 24.19 47.5195 24.3551V25.2087C47.5195 25.2651 47.54 25.3013 47.5852 25.3174C47.6304 25.3335 47.6756 25.3094 47.7249 25.253C47.9221 24.9913 48.1481 24.7658 48.3988 24.5725C48.6494 24.3792 48.9083 24.2302 49.1753 24.1215C49.4424 24.0168 49.6931 23.9604 49.9314 23.9604C50.2847 23.9604 50.4655 24.041 50.4655 24.2061V25.8892C50.4655 26.0422 50.3916 26.1067 50.2437 26.0785C50.067 26.0302 49.8821 25.9979 49.6972 25.9859C49.5123 25.9738 49.3479 25.9657 49.2082 25.9657C49.0315 25.9657 48.8466 25.9979 48.6535 26.0664C48.4604 26.1349 48.2878 26.2315 48.1276 26.3563C47.9714 26.4811 47.84 26.6181 47.7413 26.763C47.6427 26.908 47.5934 27.061 47.5934 27.2261V31.4581C47.5934 31.6796 47.466 31.7923 47.2072 31.7923H45.6253C45.5184 31.7923 45.4363 31.7682 45.3869 31.7199Z" fill="#736E79"/>
<path id="Vector_9" d="M53.925 22.8209C53.925 23.0625 53.7936 23.1833 53.5265 23.1833H51.9281C51.8007 23.1833 51.7145 23.1551 51.6693 23.0947C51.6241 23.0384 51.6035 22.9538 51.6035 22.8491V21.327C51.6035 21.1337 51.6857 21.0371 51.8542 21.0371H53.6867C53.8429 21.0371 53.925 21.1297 53.925 21.3109V22.8169V22.8209ZM53.8963 31.4461C53.8963 31.5709 53.8675 31.6595 53.8059 31.7159C53.7484 31.7682 53.6415 31.7964 53.4936 31.7964H51.9404C51.8131 31.7964 51.7268 31.7722 51.6816 31.7239C51.6364 31.6756 51.6158 31.5991 51.6158 31.4904V24.3873C51.6158 24.2021 51.6939 24.1135 51.8542 24.1135H53.6744C53.8223 24.1135 53.8963 24.194 53.8963 24.3591V31.4461Z" fill="#736E79"/>
<path id="Vector_10" d="M55.8772 31.7924C55.7498 31.7924 55.6594 31.7682 55.6101 31.7199C55.5608 31.6716 55.5361 31.591 55.5361 31.4743V21.3109C55.5361 21.1257 55.6142 21.0371 55.7744 21.0371H57.5947C57.7426 21.0371 57.8166 21.1257 57.8166 21.2988V24.6772C57.8166 24.794 57.8453 24.8544 57.8987 24.8584C57.9522 24.8625 58.0138 24.8383 58.0836 24.7779C58.2398 24.6329 58.4206 24.5001 58.6219 24.3793C58.8232 24.2585 59.0533 24.1578 59.3081 24.0813C59.5628 24.0048 59.8464 23.9645 60.1504 23.9645C60.8202 23.9645 61.3872 24.1296 61.8433 24.4558C62.2994 24.7819 62.6486 25.245 62.8869 25.8329C63.1252 26.4208 63.2403 27.1134 63.2403 27.9066C63.2403 29.1348 62.9486 30.1132 62.3692 30.8421C61.7857 31.5709 60.9558 31.9373 59.871 31.9373C59.5176 31.9373 59.1889 31.881 58.889 31.7722C58.589 31.6595 58.3261 31.5145 58.1042 31.3293C57.8823 31.1441 57.6933 30.9588 57.5331 30.7656C57.492 30.7172 57.455 30.6971 57.4221 30.7011C57.3892 30.7052 57.3646 30.7414 57.3564 30.8099L57.1797 31.5065C57.1304 31.6997 57.0153 31.7964 56.8386 31.7964H55.8772V31.7924ZM57.8166 29.1388C57.8166 29.4287 57.8864 29.6784 58.022 29.8918C58.1617 30.1052 58.3384 30.2703 58.5603 30.3911C58.7822 30.5119 59.0246 30.5723 59.2917 30.5723C59.6163 30.5723 59.9039 30.4837 60.1504 30.3105C60.3969 30.1374 60.586 29.8555 60.7215 29.4609C60.853 29.0703 60.9229 28.5589 60.9229 27.9308C60.9229 27.0409 60.7914 26.3926 60.5243 25.9899C60.2572 25.5832 59.8669 25.3819 59.3574 25.3819C59.041 25.3819 58.7575 25.4503 58.4986 25.5913C58.2439 25.7322 58.0138 25.9174 57.8166 26.151V29.1388Z" fill="#736E79"/>
<path id="Vector_11" d="M66.7983 29.5538C66.9709 29.8276 67.201 30.041 67.4927 30.19C67.7844 30.339 68.1131 30.4155 68.4747 30.4155C68.8363 30.4155 69.1568 30.339 69.4568 30.19C69.7567 30.041 70.0608 29.7913 70.3648 29.445C70.4059 29.4048 70.4388 29.3846 70.4675 29.3806C70.4963 29.3766 70.5497 29.3927 70.6319 29.4329L71.6961 29.8678C71.8358 29.9242 71.8481 30.0208 71.7413 30.1578C71.4249 30.6007 71.0962 30.955 70.7511 31.2168C70.4059 31.4785 70.0238 31.6637 69.6047 31.7765C69.1856 31.8892 68.7131 31.9416 68.1912 31.9416C67.4229 31.9416 66.7367 31.7765 66.1368 31.4503C65.5369 31.1242 65.0603 30.6651 64.711 30.0812C64.3617 29.4974 64.1851 28.8289 64.1851 28.0719C64.1851 27.2424 64.3658 26.5176 64.7233 25.9056C65.0808 25.2935 65.5656 24.8144 66.1655 24.4761C66.7654 24.1379 67.427 23.9688 68.146 23.9688C68.9062 23.9688 69.5718 24.1298 70.1429 24.456C70.7141 24.7781 71.1661 25.2412 71.4948 25.8412C71.8235 26.4411 71.9919 27.17 71.9919 28.0317C71.9919 28.1364 71.9837 28.2209 71.9632 28.2773C71.9426 28.3337 71.8687 28.3699 71.7413 28.378H66.712C66.6545 28.378 66.6093 28.3981 66.5805 28.4343C66.5518 28.4746 66.5353 28.531 66.5353 28.6075C66.5353 28.9659 66.6216 29.2799 66.7942 29.5578L66.7983 29.5538ZM69.5143 27.1539C69.6211 27.1539 69.691 27.1418 69.7197 27.1176C69.7485 27.0934 69.7649 27.0371 69.7649 26.9525C69.7649 26.7109 69.7074 26.4653 69.5965 26.2116C69.4814 25.962 69.3171 25.7485 69.0952 25.5794C68.8733 25.4103 68.5898 25.3257 68.2446 25.3257C67.92 25.3257 67.6283 25.4022 67.3736 25.5593C67.1188 25.7123 66.9216 25.9297 66.7819 26.2036C66.6422 26.4774 66.5764 26.7915 66.5764 27.1377L69.5184 27.1539H69.5143Z" fill="#736E79"/>
</g>
</g>
</g>
<defs>
<clipPath id="clip0_2092_20435">
<rect width="72" height="32" fill="white"/>
</clipPath>
</defs>
</svg>
