<svg width="28" height="26" viewBox="0 0 28 26" fill="none" xmlns="http://www.w3.org/2000/svg">
<g id="Component 38">
<g id="Path">
<path d="M21.4228 1.35105C20.6441 1.10774 19.8251 1 19.0048 1C16.8889 0.999987 15.4443 2.00149 14 3.02922C12.581 2.0162 11.1111 1 9.02094 1C8.21744 1 7.37887 1.08108 6.61726 1.32563C1.76701 2.80369 0.0380317 7.70632 1.50702 11.9916C2.33901 14.1814 3.67929 16.1679 5.42127 17.8009C8.04515 20.1577 10.9025 22.2139 14 24C17.0917 22.2611 20.0012 20.1512 22.5941 17.813C24.3478 16.18 25.6868 14.1814 26.5058 11.9916C27.95 7.70632 26.2211 2.80369 21.4228 1.35105Z" fill="#FC4C9C"/>
<path d="M21.4228 1.35105C20.6441 1.10774 19.8251 1 19.0048 1C16.8889 0.999987 15.4443 2.00149 14 3.02922C12.581 2.0162 11.1111 1 9.02094 1C8.21744 1 7.37887 1.08108 6.61726 1.32563C1.76701 2.80369 0.0380317 7.70632 1.50702 11.9916C2.33901 14.1814 3.67929 16.1679 5.42127 17.8009C8.04515 20.1577 10.9025 22.2139 14 24C17.0917 22.2611 20.0012 20.1512 22.5941 17.813C24.3478 16.18 25.6868 14.1814 26.5058 11.9916C27.95 7.70632 26.2211 2.80369 21.4228 1.35105Z" stroke="#FC4C9C" stroke-width="2"/>
<path d="M21.4228 1.35105C20.6441 1.10774 19.8251 1 19.0048 1C16.8889 0.999987 15.4443 2.00149 14 3.02922C12.581 2.0162 11.1111 1 9.02094 1C8.21744 1 7.37887 1.08108 6.61726 1.32563C1.76701 2.80369 0.0380317 7.70632 1.50702 11.9916C2.33901 14.1814 3.67929 16.1679 5.42127 17.8009C8.04515 20.1577 10.9025 22.2139 14 24C17.0917 22.2611 20.0012 20.1512 22.5941 17.813C24.3478 16.18 25.6868 14.1814 26.5058 11.9916C27.95 7.70632 26.2211 2.80369 21.4228 1.35105Z" stroke="black" stroke-opacity="0.2" stroke-width="2"/>
</g>
<path id="Vector 1279" d="M10.3068 3.77139C7.94311 3.07844 3.95446 5.5724 4.69313 10.0061" stroke="white" stroke-width="2" stroke-linecap="round"/>
</g>
</svg>
