<svg width="114" height="114" viewBox="0 0 114 114" fill="none" xmlns="http://www.w3.org/2000/svg">
<g id="QR">
<g id="Group">
<path id="Vector" d="M20.7633 93.158V62.2275H51.7404V93.158H20.7633ZM41.3401 72.7062H31.2518V82.7642H41.3401V72.7062Z" fill="black" fill-opacity="0.2"/>
<path id="Vector_2" d="M51.7574 51.7692H20.8447V20.7505H51.7574V51.7692ZM41.3231 31.2156H31.1976V41.2837H41.3231V31.2156Z" fill="black" fill-opacity="0.2"/>
<path id="Vector_3" d="M93.2027 51.7592H62.307V20.771H93.2027V51.7592ZM82.8533 31.1852H72.7141V41.2805H82.8533V31.1852Z" fill="black" fill-opacity="0.2"/>
<path id="Vector_4" d="M0 113.956V82.9883H10.2138V103.64H30.9771V113.956H0Z" fill="black" fill-opacity="0.2"/>
<path id="Vector_5" d="M10.2647 10.2139V30.9779H0.0644531V0.0541992H31.028V10.2139H10.2647Z" fill="black" fill-opacity="0.2"/>
<path id="Vector_6" d="M103.824 10.2649H83.067V0H114V30.961H103.827V10.2649H103.824Z" fill="black" fill-opacity="0.2"/>
<path id="Vector_7" d="M113.966 114H83.0636V103.708H103.722V82.9814H113.969V114H113.966Z" fill="black" fill-opacity="0.2"/>
<path id="Vector_8" d="M72.5987 72.6077H93.2027V93.2156H82.9787V83.0558H72.6394V93.2122H62.2527V82.9405H72.6293V72.5737L72.5953 72.6077H72.5987Z" fill="black" fill-opacity="0.2"/>
<path id="Vector_9" d="M72.6327 72.5738H62.2426V62.2783H72.5988C72.5988 65.7497 72.5988 69.1804 72.5988 72.6077L72.6327 72.5738Z" fill="black" fill-opacity="0.2"/>
</g>
</g>
</svg>
