<svg width="64" height="64" viewBox="0 0 64 64" fill="none" xmlns="http://www.w3.org/2000/svg">
<path d="M54.9062 7H8.22501C7.63522 7.00106 7.0699 7.23581 6.65286 7.65286C6.23581 8.0699 6.00106 8.63522 6 9.22501V55.9062C6.00106 56.496 6.23581 57.0613 6.65286 57.4784C7.0699 57.8954 7.63522 58.1302 8.22501 58.1312H54.9062C55.496 58.1302 56.0613 57.8954 56.4784 57.4784C56.8954 57.0613 57.1302 56.496 57.1312 55.9062V9.22501C57.1302 8.63522 56.8954 8.0699 56.4784 7.65286C56.0613 7.23581 55.496 7.00106 54.9062 7ZM38.8638 18.3368L41.9516 14.1903L45.0275 18.3368L49.9409 19.9865L46.9489 24.2009L46.877 29.3699L41.9516 27.824L37.0143 29.3699L36.9584 24.2009L33.9624 19.9865L38.8638 18.3368ZM20.7801 50.9409C19.279 50.9409 17.8116 50.4958 16.5635 49.6618C15.3153 48.8278 14.3425 47.6424 13.7681 46.2556C13.1936 44.8687 13.0433 43.3427 13.3362 41.8704C13.629 40.3981 14.3519 39.0458 15.4133 37.9843C16.4748 36.9229 17.8272 36.2 19.2994 35.9072C20.7717 35.6143 22.2978 35.7646 23.6846 36.3391C25.0715 36.9135 26.2568 37.8863 27.0908 39.1344C27.9248 40.3826 28.3699 41.85 28.3699 43.3511C28.3699 45.364 27.5703 47.2945 26.1469 48.7179C24.7236 50.1413 22.7931 50.9409 20.7801 50.9409ZM28.3699 29.3699H13.1903V14.1903H28.3699V29.3699ZM49.9409 50.9409H33.9624L49.9409 34.5629V50.9409Z" fill="#6622AA"/>
<path d="M54.9062 7H8.22501C7.63522 7.00106 7.0699 7.23581 6.65286 7.65286C6.23581 8.0699 6.00106 8.63522 6 9.22501V55.9062C6.00106 56.496 6.23581 57.0613 6.65286 57.4784C7.0699 57.8954 7.63522 58.1302 8.22501 58.1312H54.9062C55.496 58.1302 56.0613 57.8954 56.4784 57.4784C56.8954 57.0613 57.1302 56.496 57.1312 55.9062V9.22501C57.1302 8.63522 56.8954 8.0699 56.4784 7.65286C56.0613 7.23581 55.496 7.00106 54.9062 7ZM38.8638 18.3368L41.9516 14.1903L45.0275 18.3368L49.9409 19.9865L46.9489 24.2009L46.877 29.3699L41.9516 27.824L37.0143 29.3699L36.9584 24.2009L33.9624 19.9865L38.8638 18.3368ZM20.7801 50.9409C19.279 50.9409 17.8116 50.4958 16.5635 49.6618C15.3153 48.8278 14.3425 47.6424 13.7681 46.2556C13.1936 44.8687 13.0433 43.3427 13.3362 41.8704C13.629 40.3981 14.3519 39.0458 15.4133 37.9843C16.4748 36.9229 17.8272 36.2 19.2994 35.9072C20.7717 35.6143 22.2978 35.7646 23.6846 36.3391C25.0715 36.9135 26.2568 37.8863 27.0908 39.1344C27.9248 40.3826 28.3699 41.85 28.3699 43.3511C28.3699 45.364 27.5703 47.2945 26.1469 48.7179C24.7236 50.1413 22.7931 50.9409 20.7801 50.9409ZM28.3699 29.3699H13.1903V14.1903H28.3699V29.3699ZM49.9409 50.9409H33.9624L49.9409 34.5629V50.9409Z" fill="white" fill-opacity="0.3"/>
</svg>
