<svg width="64" height="64" viewBox="0 0 64 64" fill="none" xmlns="http://www.w3.org/2000/svg">
<path d="M20.6593 12.8751L20.6774 19.0995C20.679 19.5271 21.0271 19.8724 21.4547 19.8707L43.1507 19.8473C43.5759 19.8458 43.9202 19.5013 43.9219 19.0761L43.9099 12.8865C43.9115 12.4565 43.5626 12.1076 43.1326 12.1092L40.8235 12.1076V9.77732C40.825 9.34972 40.4798 9.00173 40.0522 9.00001H36.2065C35.7766 8.99845 35.4276 9.34735 35.4292 9.77732V12.1046L29.1641 12.1017V9.78803C29.1625 9.36043 28.8144 9.01518 28.3868 9.01679H24.5412C24.1154 9.01758 23.7701 9.36222 23.7684 9.78803V12.0987L21.3995 12.0972C20.9617 12.1344 20.6561 12.4726 20.6593 12.8751ZM36.9778 10.5494H39.2749V12.0751H36.9778V10.5494ZM25.3185 10.5669H27.6156V12.0927H25.3185V10.5669ZM12.1031 19.117V21.4217L9.77729 21.4201C9.34733 21.4185 8.99837 21.7675 9.00001 22.1974L9.02269 29.1477C9.02354 29.5758 9.37179 29.922 9.79998 29.9204L31.4959 29.897C31.9218 29.8955 32.2663 29.55 32.2672 29.1242L32.2445 22.2087C32.243 21.7835 31.8985 21.4392 31.4733 21.4375L17.5048 21.4258V19.1166C17.5031 18.6885 17.1551 18.3432 16.7275 18.3449H12.8403C12.4042 18.3847 12.1027 18.719 12.1031 19.117ZM13.6531 19.8943H15.9563V21.4156H13.6531V19.8943ZM47.025 29.063V31.4614L40.7553 31.4731V29.0792C40.7538 28.654 40.4093 28.3097 39.9841 28.308H36.0939C35.6608 28.3478 35.3593 28.6812 35.3597 29.0792V31.4822L22.1625 31.5085C21.7366 31.5101 21.3921 31.8554 21.3912 32.2813L21.3974 40.7331C21.3982 41.1613 21.7465 41.5075 22.1747 41.5059L54.724 41.5117C55.1502 41.5107 55.4957 41.1652 55.4966 40.7388L55.5013 32.2174C55.4997 31.7898 55.1516 31.4445 54.724 31.4462L52.4208 31.452V29.0642C52.4201 28.6361 52.0717 28.2899 51.6436 28.2915H47.7593C47.3257 28.3313 47.0239 28.6644 47.025 29.063ZM48.5736 29.8402H50.8722V31.3601H48.5736V29.8402ZM36.9082 29.8578H39.2068V31.3776H36.9082V29.8578ZM12.1031 40.7625V43.0672H9.77124C9.34365 43.0687 8.99837 43.4168 9.00001 43.8444L9.01664 54.7143C9.01749 55.1425 9.36574 55.4887 9.79392 55.4871L30.7655 55.4464C31.1931 55.4449 31.5384 55.0968 31.5368 54.6691L31.5187 43.8325C31.5171 43.4073 31.1727 43.063 30.7474 43.0613L17.4988 43.0671V40.764C17.4971 40.3387 17.1528 39.9945 16.7275 39.9928H12.8403C12.4042 40.0326 12.1027 40.3644 12.1031 40.7625ZM13.6531 41.5398H15.9502V43.0611H13.6531V41.5398ZM33.8233 43.0203C33.3933 43.0187 33.0443 43.3675 33.046 43.7975L33.0626 54.6629C33.0611 55.0929 33.41 55.4418 33.8399 55.4402L54.7873 55.4704C55.2149 55.4688 55.5602 55.1207 55.5586 54.6931L55.5419 43.8564C55.5411 43.43 55.1956 43.0846 54.7692 43.0837L33.8233 43.0203Z" fill="#6622AA"/>
<path d="M20.6593 12.8751L20.6774 19.0995C20.679 19.5271 21.0271 19.8724 21.4547 19.8707L43.1507 19.8473C43.5759 19.8458 43.9202 19.5013 43.9219 19.0761L43.9099 12.8865C43.9115 12.4565 43.5626 12.1076 43.1326 12.1092L40.8235 12.1076V9.77732C40.825 9.34972 40.4798 9.00173 40.0522 9.00001H36.2065C35.7766 8.99845 35.4276 9.34735 35.4292 9.77732V12.1046L29.1641 12.1017V9.78803C29.1625 9.36043 28.8144 9.01518 28.3868 9.01679H24.5412C24.1154 9.01758 23.7701 9.36222 23.7684 9.78803V12.0987L21.3995 12.0972C20.9617 12.1344 20.6561 12.4726 20.6593 12.8751ZM36.9778 10.5494H39.2749V12.0751H36.9778V10.5494ZM25.3185 10.5669H27.6156V12.0927H25.3185V10.5669ZM12.1031 19.117V21.4217L9.77729 21.4201C9.34733 21.4185 8.99837 21.7675 9.00001 22.1974L9.02269 29.1477C9.02354 29.5758 9.37179 29.922 9.79998 29.9204L31.4959 29.897C31.9218 29.8955 32.2663 29.55 32.2672 29.1242L32.2445 22.2087C32.243 21.7835 31.8985 21.4392 31.4733 21.4375L17.5048 21.4258V19.1166C17.5031 18.6885 17.1551 18.3432 16.7275 18.3449H12.8403C12.4042 18.3847 12.1027 18.719 12.1031 19.117ZM13.6531 19.8943H15.9563V21.4156H13.6531V19.8943ZM47.025 29.063V31.4614L40.7553 31.4731V29.0792C40.7538 28.654 40.4093 28.3097 39.9841 28.308H36.0939C35.6608 28.3478 35.3593 28.6812 35.3597 29.0792V31.4822L22.1625 31.5085C21.7366 31.5101 21.3921 31.8554 21.3912 32.2813L21.3974 40.7331C21.3982 41.1613 21.7465 41.5075 22.1747 41.5059L54.724 41.5117C55.1502 41.5107 55.4957 41.1652 55.4966 40.7388L55.5013 32.2174C55.4997 31.7898 55.1516 31.4445 54.724 31.4462L52.4208 31.452V29.0642C52.4201 28.6361 52.0717 28.2899 51.6436 28.2915H47.7593C47.3257 28.3313 47.0239 28.6644 47.025 29.063ZM48.5736 29.8402H50.8722V31.3601H48.5736V29.8402ZM36.9082 29.8578H39.2068V31.3776H36.9082V29.8578ZM12.1031 40.7625V43.0672H9.77124C9.34365 43.0687 8.99837 43.4168 9.00001 43.8444L9.01664 54.7143C9.01749 55.1425 9.36574 55.4887 9.79392 55.4871L30.7655 55.4464C31.1931 55.4449 31.5384 55.0968 31.5368 54.6691L31.5187 43.8325C31.5171 43.4073 31.1727 43.063 30.7474 43.0613L17.4988 43.0671V40.764C17.4971 40.3387 17.1528 39.9945 16.7275 39.9928H12.8403C12.4042 40.0326 12.1027 40.3644 12.1031 40.7625ZM13.6531 41.5398H15.9502V43.0611H13.6531V41.5398ZM33.8233 43.0203C33.3933 43.0187 33.0443 43.3675 33.046 43.7975L33.0626 54.6629C33.0611 55.0929 33.41 55.4418 33.8399 55.4402L54.7873 55.4704C55.2149 55.4688 55.5602 55.1207 55.5586 54.6931L55.5419 43.8564C55.5411 43.43 55.1956 43.0846 54.7692 43.0837L33.8233 43.0203Z" fill="white" fill-opacity="0.3"/>
</svg>
