<svg width="64" height="64" viewBox="0 0 64 64" fill="none" xmlns="http://www.w3.org/2000/svg">
<path d="M48.4478 44.3025C49.9643 44.3025 51.1972 43.0696 51.1972 41.5531V40.9098C51.1972 39.3933 49.9643 38.1604 48.4478 38.1604H41.8892C41.8041 37.8737 41.7046 37.594 41.5868 37.3224C41.8375 37.18 42.0826 37.032 42.322 36.8789C46.845 33.9883 49.43 29.2152 48.9096 23.8089C48.7672 22.1431 48.386 20.5372 47.802 19.027C50.4355 17.8608 52.2752 15.2286 52.2752 12.1635C52.2758 8.01599 48.9146 4.65479 44.7684 4.65479C41.7399 4.65479 39.1372 6.45163 37.9502 9.03349C36.0116 8.26107 33.9054 7.83265 31.7035 7.83265C29.5015 7.83265 27.3953 8.26107 25.4567 9.03349C24.2691 6.45163 21.6659 4.65479 18.6379 4.65479C14.4917 4.65479 11.1299 8.01599 11.1299 12.1628C11.1299 15.2286 12.9696 17.8602 15.6031 19.0264C15.0191 20.5359 14.6379 22.1419 14.4961 23.8083C13.9757 29.2146 16.5601 33.9883 21.0837 36.8783C21.2998 37.0162 21.5203 37.1498 21.7452 37.279C21.6199 37.5637 21.5121 37.858 21.422 38.1597H14.8634C13.347 38.1597 12.114 39.3927 12.114 40.9092V41.5524C12.114 43.0689 13.347 44.3019 14.8634 44.3019H21.1102V45.9753C21.1102 46.6702 21.2028 47.343 21.3603 47.9907C21.4939 48.5401 21.6797 49.0687 21.9141 49.5721L18.2883 55.7016C17.2361 57.4802 17.8271 59.783 19.6063 60.8351C21.3849 61.8879 23.6876 61.2957 24.7398 59.5177L27.7992 54.3452C28.2453 54.4473 28.7045 54.5103 29.1733 54.5392C29.3491 54.5499 29.523 54.5663 29.7013 54.5663H33.6112C33.7895 54.5663 33.9634 54.5506 34.1392 54.5392C34.6079 54.5103 35.0672 54.4473 35.5133 54.3452L38.5727 59.5177C39.0799 60.3752 39.8951 60.9851 40.8679 61.2346C41.8407 61.4841 42.8487 61.3429 43.7062 60.8351C45.4847 59.7836 46.0763 57.4802 45.0242 55.7016L41.3984 49.5721C41.6327 49.0687 41.8186 48.5407 41.9522 47.9907C42.1097 47.3424 42.2023 46.6702 42.2023 45.9753V44.3025H48.4478ZM31.7029 22.1129C35.478 22.1129 38.5488 25.1843 38.5488 28.9588C38.5488 32.7333 35.478 35.8053 31.7029 35.8053C27.9277 35.8053 24.857 32.7339 24.857 28.9594C24.857 25.1849 27.9277 22.1129 31.7029 22.1129ZM44.7684 10.2305C45.8338 10.2305 46.7007 11.0975 46.7007 12.1628C46.7007 13.2282 45.8338 14.0951 44.7684 14.0951C43.703 14.0951 42.8361 13.2282 42.8361 12.1628C42.8361 11.0975 43.7024 10.2305 44.7684 10.2305ZM35.7489 17.2232C36.5698 17.2232 37.2351 17.8885 37.2351 18.7095C37.2351 19.5304 36.5698 20.1957 35.7489 20.1957C34.928 20.1957 34.2627 19.5304 34.2627 18.7095C34.2627 17.8885 34.928 17.2232 35.7489 17.2232ZM27.6568 17.2232C28.4777 17.2232 29.143 17.8885 29.143 18.7095C29.143 19.5304 28.4777 20.1957 27.6568 20.1957C26.8359 20.1957 26.1706 19.5304 26.1706 18.7095C26.1699 17.8885 26.8359 17.2232 27.6568 17.2232ZM18.6373 14.0951C17.5719 14.0951 16.705 13.2282 16.705 12.1628C16.705 11.0975 17.5719 10.2305 18.6373 10.2305C19.7027 10.2305 20.5696 11.0975 20.5696 12.1628C20.5696 13.2282 19.7033 14.0951 18.6373 14.0951Z" fill="#6622AA"/>
<path d="M48.4478 44.3025C49.9643 44.3025 51.1972 43.0696 51.1972 41.5531V40.9098C51.1972 39.3933 49.9643 38.1604 48.4478 38.1604H41.8892C41.8041 37.8737 41.7046 37.594 41.5868 37.3224C41.8375 37.18 42.0826 37.032 42.322 36.8789C46.845 33.9883 49.43 29.2152 48.9096 23.8089C48.7672 22.1431 48.386 20.5372 47.802 19.027C50.4355 17.8608 52.2752 15.2286 52.2752 12.1635C52.2758 8.01599 48.9146 4.65479 44.7684 4.65479C41.7399 4.65479 39.1372 6.45163 37.9502 9.03349C36.0116 8.26107 33.9054 7.83265 31.7035 7.83265C29.5015 7.83265 27.3953 8.26107 25.4567 9.03349C24.2691 6.45163 21.6659 4.65479 18.6379 4.65479C14.4917 4.65479 11.1299 8.01599 11.1299 12.1628C11.1299 15.2286 12.9696 17.8602 15.6031 19.0264C15.0191 20.5359 14.6379 22.1419 14.4961 23.8083C13.9757 29.2146 16.5601 33.9883 21.0837 36.8783C21.2998 37.0162 21.5203 37.1498 21.7452 37.279C21.6199 37.5637 21.5121 37.858 21.422 38.1597H14.8634C13.347 38.1597 12.114 39.3927 12.114 40.9092V41.5524C12.114 43.0689 13.347 44.3019 14.8634 44.3019H21.1102V45.9753C21.1102 46.6702 21.2028 47.343 21.3603 47.9907C21.4939 48.5401 21.6797 49.0687 21.9141 49.5721L18.2883 55.7016C17.2361 57.4802 17.8271 59.783 19.6063 60.8351C21.3849 61.8879 23.6876 61.2957 24.7398 59.5177L27.7992 54.3452C28.2453 54.4473 28.7045 54.5103 29.1733 54.5392C29.3491 54.5499 29.523 54.5663 29.7013 54.5663H33.6112C33.7895 54.5663 33.9634 54.5506 34.1392 54.5392C34.6079 54.5103 35.0672 54.4473 35.5133 54.3452L38.5727 59.5177C39.0799 60.3752 39.8951 60.9851 40.8679 61.2346C41.8407 61.4841 42.8487 61.3429 43.7062 60.8351C45.4847 59.7836 46.0763 57.4802 45.0242 55.7016L41.3984 49.5721C41.6327 49.0687 41.8186 48.5407 41.9522 47.9907C42.1097 47.3424 42.2023 46.6702 42.2023 45.9753V44.3025H48.4478ZM31.7029 22.1129C35.478 22.1129 38.5488 25.1843 38.5488 28.9588C38.5488 32.7333 35.478 35.8053 31.7029 35.8053C27.9277 35.8053 24.857 32.7339 24.857 28.9594C24.857 25.1849 27.9277 22.1129 31.7029 22.1129ZM44.7684 10.2305C45.8338 10.2305 46.7007 11.0975 46.7007 12.1628C46.7007 13.2282 45.8338 14.0951 44.7684 14.0951C43.703 14.0951 42.8361 13.2282 42.8361 12.1628C42.8361 11.0975 43.7024 10.2305 44.7684 10.2305ZM35.7489 17.2232C36.5698 17.2232 37.2351 17.8885 37.2351 18.7095C37.2351 19.5304 36.5698 20.1957 35.7489 20.1957C34.928 20.1957 34.2627 19.5304 34.2627 18.7095C34.2627 17.8885 34.928 17.2232 35.7489 17.2232ZM27.6568 17.2232C28.4777 17.2232 29.143 17.8885 29.143 18.7095C29.143 19.5304 28.4777 20.1957 27.6568 20.1957C26.8359 20.1957 26.1706 19.5304 26.1706 18.7095C26.1699 17.8885 26.8359 17.2232 27.6568 17.2232ZM18.6373 14.0951C17.5719 14.0951 16.705 13.2282 16.705 12.1628C16.705 11.0975 17.5719 10.2305 18.6373 10.2305C19.7027 10.2305 20.5696 11.0975 20.5696 12.1628C20.5696 13.2282 19.7033 14.0951 18.6373 14.0951Z" fill="white" fill-opacity="0.3"/>
<path d="M31.7029 29.5888C33.4078 29.5888 34.79 28.2067 34.79 26.5017C34.79 24.7967 33.4078 23.4145 31.7029 23.4145C29.9979 23.4145 28.6157 24.7967 28.6157 26.5017C28.6157 28.2067 29.9979 29.5888 31.7029 29.5888Z" fill="#6622AA"/>
<path d="M31.7029 29.5888C33.4078 29.5888 34.79 28.2067 34.79 26.5017C34.79 24.7967 33.4078 23.4145 31.7029 23.4145C29.9979 23.4145 28.6157 24.7967 28.6157 26.5017C28.6157 28.2067 29.9979 29.5888 31.7029 29.5888Z" fill="white" fill-opacity="0.3"/>
</svg>
