<svg width="64" height="64" viewBox="0 0 64 64" fill="none" xmlns="http://www.w3.org/2000/svg">
<path fill-rule="evenodd" clip-rule="evenodd" d="M14.5631 10.7515C14.5631 8.14139 16.7044 6 19.3145 6C21.9246 6 24.066 8.14139 24.066 10.7515C24.066 10.86 24.0594 10.9672 24.0521 11.074C26.3973 9.37866 29.2735 8.37575 32.3812 8.37575C35.4888 8.37575 38.3651 9.37866 40.7102 11.074C40.7029 10.9672 40.6963 10.8601 40.6963 10.7515C40.6963 8.14139 42.8377 6 45.4478 6C48.0579 6 50.1993 8.14139 50.1993 10.7515C50.1993 13.3616 48.0579 15.503 45.4478 15.503C45.1861 15.503 44.9304 15.4794 44.6798 15.438C45.9206 17.5511 46.6357 20.0083 46.6357 22.6302C46.6357 25.5615 45.7442 28.2873 44.2205 30.5556L44.3551 31.6298L51.1204 33.4417H51.1228C53.0099 33.9476 54.1478 35.9185 53.6424 37.8058V37.8082C53.1365 39.6953 51.1656 40.8332 49.2783 40.3278L45.3087 39.2652L46.4061 48.035C46.6074 49.6453 45.337 51.1214 43.7357 51.2112C43.2539 51.2382 42.7716 51.2715 42.2903 51.3086L42.9515 53.7795V53.7818C43.457 55.6691 42.3191 57.64 40.4319 58.1459H40.4295C38.5423 58.6514 36.5714 57.5134 36.0655 55.6263V55.6239L35.0957 52.0046C33.2861 52.1738 31.453 52.3091 29.5763 52.3387L28.697 55.6239V55.6263C28.1911 57.5134 26.2202 58.6514 24.3329 58.1459H24.3305C22.4434 57.64 21.3055 55.6691 21.8109 53.7818L22.333 51.8283C21.8246 51.7425 21.3118 51.6451 20.7948 51.5337C19.1703 51.1834 18.1554 49.6427 18.3564 48.035L19.4538 39.2652L15.4841 40.3278C13.5969 40.8332 11.626 39.6953 11.1201 37.8082V37.8058C10.6146 35.9186 11.7525 33.9476 13.6397 33.4418H13.642L20.4073 31.6298L20.5419 30.5556C19.0181 28.2873 18.1267 25.5615 18.1267 22.6302C18.1267 20.0083 18.8417 17.5511 20.0825 15.438C19.8319 15.4794 19.5762 15.503 19.3145 15.503C16.7044 15.503 14.5631 13.3616 14.5631 10.7515ZM37.8867 22.8414C35.711 21.987 33.8837 20.5149 32.3719 18.7511C29.4112 22.178 25.0561 24.0808 20.5558 23.7416C21.1145 29.7915 26.182 34.509 32.3812 34.509C38.5787 34.509 43.6456 29.7939 44.2066 23.7462C42.0677 23.9251 39.9082 23.62 37.8937 22.8437C37.8913 22.8425 37.8891 22.8422 37.8867 22.8414Z" fill="#6622AA"/>
<path fill-rule="evenodd" clip-rule="evenodd" d="M14.5631 10.7515C14.5631 8.14139 16.7044 6 19.3145 6C21.9246 6 24.066 8.14139 24.066 10.7515C24.066 10.86 24.0594 10.9672 24.0521 11.074C26.3973 9.37866 29.2735 8.37575 32.3812 8.37575C35.4888 8.37575 38.3651 9.37866 40.7102 11.074C40.7029 10.9672 40.6963 10.8601 40.6963 10.7515C40.6963 8.14139 42.8377 6 45.4478 6C48.0579 6 50.1993 8.14139 50.1993 10.7515C50.1993 13.3616 48.0579 15.503 45.4478 15.503C45.1861 15.503 44.9304 15.4794 44.6798 15.438C45.9206 17.5511 46.6357 20.0083 46.6357 22.6302C46.6357 25.5615 45.7442 28.2873 44.2205 30.5556L44.3551 31.6298L51.1204 33.4417H51.1228C53.0099 33.9476 54.1478 35.9185 53.6424 37.8058V37.8082C53.1365 39.6953 51.1656 40.8332 49.2783 40.3278L45.3087 39.2652L46.4061 48.035C46.6074 49.6453 45.337 51.1214 43.7357 51.2112C43.2539 51.2382 42.7716 51.2715 42.2903 51.3086L42.9515 53.7795V53.7818C43.457 55.6691 42.3191 57.64 40.4319 58.1459H40.4295C38.5423 58.6514 36.5714 57.5134 36.0655 55.6263V55.6239L35.0957 52.0046C33.2861 52.1738 31.453 52.3091 29.5763 52.3387L28.697 55.6239V55.6263C28.1911 57.5134 26.2202 58.6514 24.3329 58.1459H24.3305C22.4434 57.64 21.3055 55.6691 21.8109 53.7818L22.333 51.8283C21.8246 51.7425 21.3118 51.6451 20.7948 51.5337C19.1703 51.1834 18.1554 49.6427 18.3564 48.035L19.4538 39.2652L15.4841 40.3278C13.5969 40.8332 11.626 39.6953 11.1201 37.8082V37.8058C10.6146 35.9186 11.7525 33.9476 13.6397 33.4418H13.642L20.4073 31.6298L20.5419 30.5556C19.0181 28.2873 18.1267 25.5615 18.1267 22.6302C18.1267 20.0083 18.8417 17.5511 20.0825 15.438C19.8319 15.4794 19.5762 15.503 19.3145 15.503C16.7044 15.503 14.5631 13.3616 14.5631 10.7515ZM37.8867 22.8414C35.711 21.987 33.8837 20.5149 32.3719 18.7511C29.4112 22.178 25.0561 24.0808 20.5558 23.7416C21.1145 29.7915 26.182 34.509 32.3812 34.509C38.5787 34.509 43.6456 29.7939 44.2066 23.7462C42.0677 23.9251 39.9082 23.62 37.8937 22.8437C37.8913 22.8425 37.8891 22.8422 37.8867 22.8414Z" fill="white" fill-opacity="0.3"/>
</svg>
