<svg width="157" height="150" viewBox="0 0 157 150" fill="none" xmlns="http://www.w3.org/2000/svg">
<path d="M42.5136 143.977C39.7347 140.025 36.6959 136.313 32.9273 133.237C31.8311 132.348 30.6682 131.541 29.532 130.702C28.1992 129.729 28.1459 128.602 29.4753 127.703C34.3275 124.385 38.5204 120.194 41.8405 115.344C42.7901 113.961 43.9364 114.044 44.936 115.437C45.5424 116.28 46.0555 117.19 46.8286 117.903C46.1022 118.902 45.1059 119.569 44.1196 120.259C43.28 120.842 43.16 121.355 44.0497 121.955C46.2943 123.519 48.2305 125.485 49.7608 127.753C50.3472 128.596 50.9003 128.592 51.4967 127.753C52.1931 126.776 52.8496 125.753 53.8292 125.024C54.8621 125.993 56.055 126.756 57.1879 127.596C58.5606 128.612 58.5906 129.715 57.1879 130.692C52.3134 134.052 48.1011 138.284 44.7627 143.174C44.5317 143.461 44.2776 143.73 44.003 143.977H42.5136Z" fill="#FEC651"/>
<path d="M86.9962 16.0233C89.4453 19.7903 92.6162 23.0349 96.3259 25.5698C97.6587 26.5062 97.6587 27.3292 96.3259 28.2822C92.9826 30.6218 90.0762 33.5305 87.7393 36.8757C86.793 38.2086 86.0133 38.1719 85.0303 36.8057C82.6379 33.4736 79.879 30.5214 76.4737 28.1955C75.1409 27.2925 75.1742 26.5561 76.5103 25.6331C80.2066 23.0866 83.3486 19.8176 85.7467 16.0233H86.9962Z" fill="#5DCDFE"/>
<path d="M32.051 85.8379C31.8677 84.6917 31.6778 83.5454 31.5045 82.3992C31.4245 81.876 30.998 81.6661 30.6415 81.3995C25.5524 77.4454 20.4644 73.4891 15.3775 69.5305C12.7285 67.4546 12.9551 64.4224 15.9239 62.7563C21.5084 59.6308 27.114 56.5419 32.7407 53.4897C33.0488 53.3336 33.3227 53.1177 33.5464 52.8545C33.7701 52.5913 33.9391 52.2862 34.0435 51.9569C36.2249 45.8614 38.4307 39.7736 40.6609 33.6936C41.3906 31.6943 42.7468 30.8846 44.7993 31.0279C45.5947 31.0886 46.3419 31.4327 46.9052 31.9975C49.0332 33.9835 51.1557 35.9761 53.2727 37.9754C55.9383 40.4811 58.6272 42.9735 61.2695 45.5093C61.5311 45.7695 61.8439 45.9725 62.188 46.1056C62.5322 46.2387 62.9002 46.2989 63.2688 46.2823C65.0947 46.3057 66.934 46.209 68.75 46.4423C68.8633 46.9254 68.9366 47.4219 69.0832 47.8884C70.8825 53.1465 71.4989 58.4779 70.5493 64.0125C69.5157 70.2948 66.6204 76.1221 62.2381 80.7404C57.8558 85.3587 52.1882 88.5553 45.9689 89.9164C43.5891 90.4496 41.1571 90.7145 38.7184 90.7061C36.8324 90.7061 34.9398 90.3396 33.0539 90.2596L32.051 85.8379Z" fill="#FEC651"/>
<path d="M78.1197 73.8389C79.1926 73.7323 80.2688 73.639 81.3417 73.5057C82.1239 73.4268 82.8429 73.041 83.341 72.4327C87.5726 67.6711 91.8576 62.9562 96.1426 58.2446C97.6787 56.5552 99.2014 56.3119 101.297 57.3316C101.297 57.3316 101.58 57.5803 101.494 57.5182L101.467 57.4982C101.819 57.9341 102.092 58.4167 102.365 58.8977C102.636 59.3747 102.907 59.8502 103.257 60.2772V60.2538L103.48 60.6704L108.811 72.3528C107.867 73.4084 106.788 74.3349 105.602 75.1084C104.873 75.6282 104.843 76.1914 105.579 76.6945C107.866 78.2996 109.857 80.2895 111.463 82.5757C112.156 83.5287 112.576 83.5054 113.289 82.5757C114.039 81.5761 114.715 80.5298 115.712 79.7467L117.268 80.5431C117.244 81.5428 117.141 82.5224 117.061 83.512C116.704 88.4129 115.168 93.1548 112.583 97.3337C108.731 103.571 103.406 108.106 96.4892 110.625C92.3008 112.215 87.8159 112.871 83.3476 112.548C80.252 112.325 77.2004 111.687 74.2745 110.652C71.9987 109.832 69.9095 108.653 67.8037 107.51C68.2435 105.267 68.63 103.015 69.1365 100.792C69.2634 100.336 69.2908 99.8574 69.2166 99.3895C69.1424 98.9215 68.9685 98.4749 68.7067 98.0801C67.9303 96.8505 67.2606 95.5576 66.5442 94.2914C67.6138 94.4081 68.6834 94.5313 69.7529 94.6413C72.9683 94.9745 76.1404 95.6809 79.3792 95.7509C79.9619 95.7705 80.5409 95.6517 81.0687 95.4042C81.5966 95.1567 82.0583 94.7877 82.416 94.3272C82.7736 93.8668 83.0171 93.3282 83.1263 92.7555C83.2355 92.1828 83.2075 91.5924 83.0444 91.0326C81.4151 85.2847 79.749 79.5635 78.1197 73.8389Z" fill="#F81ECF"/>
<path d="M67.777 107.493C69.8829 108.643 71.9721 109.826 74.2478 110.636C77.1738 111.671 80.2254 112.308 83.321 112.531C87.7892 112.855 92.2741 112.199 96.4625 110.609C103.38 108.09 108.704 103.551 112.556 97.317C115.141 93.1381 116.678 88.3962 117.034 83.4954C117.111 82.4958 117.218 81.5195 117.241 80.5265C121.739 82.3347 126.165 84.3051 130.519 86.4377C132.975 87.6372 133.165 90.7694 131.039 92.7487C127.807 95.7476 124.532 98.7099 121.276 101.689C119.74 103.095 118.217 104.514 116.668 105.901C116.445 106.081 116.26 106.305 116.126 106.559C115.991 106.812 115.909 107.091 115.885 107.377C115.608 110.226 115.295 113.071 114.989 115.917C114.572 119.792 114.226 123.677 113.702 127.539C113.369 130.095 110.35 131.358 107.941 130.022C104.02 127.846 100.138 125.603 96.2393 123.388C94.5066 122.388 92.7573 121.445 91.0446 120.425C90.7323 120.228 90.3828 120.097 90.0178 120.039C89.6528 119.982 89.2799 120 88.9221 120.092C82.5646 121.474 76.2015 122.827 69.8329 124.151C67.1673 124.704 64.8349 122.614 65.258 119.899C65.8278 116.257 66.6408 112.651 67.3872 109.039C67.4872 108.533 67.4205 107.956 67.777 107.493Z" fill="#E701C6"/>
<path d="M78.1197 73.8389C79.7591 79.5635 81.4251 85.2847 83.0244 91.0193C83.1875 91.5791 83.2156 92.1695 83.1063 92.7422C82.9971 93.3149 82.7537 93.8535 82.396 94.3139C82.0383 94.7743 81.5767 95.1434 81.0488 95.3909C80.5209 95.6384 79.9419 95.7572 79.3592 95.7376C76.1205 95.6676 72.9451 94.9579 69.733 94.628C68.6634 94.518 67.5938 94.3948 66.5242 94.2781C64.0985 93.9449 61.6728 93.6117 59.2537 93.2452C58.484 93.1285 57.8943 93.4318 57.2978 93.8383C52.1776 97.3303 47.0529 100.814 41.9238 104.288C39.005 106.264 36.9758 105.791 35.2598 102.765C35.0598 101.589 34.8666 100.413 34.6633 99.2363C34.1435 96.2374 33.3838 93.2752 33.0306 90.2396C34.9299 90.3196 36.8225 90.6694 38.6951 90.6861C41.1338 90.6945 43.5658 90.4296 45.9456 89.8964C52.1649 88.5353 57.8325 85.3387 62.2148 80.7204C66.5972 76.1021 69.4925 70.2747 70.526 63.9925C71.4756 58.4579 70.8592 53.1231 69.0599 47.8684C68.9 47.4019 68.8267 46.9054 68.7267 46.4222C73.3915 46.5389 78.0564 46.6488 82.6979 46.7788C85.2369 46.8488 87.3861 49.6377 85.93 52.62C83.5976 57.3982 81.3718 62.2232 79.1026 67.0281C78.8677 67.6496 78.5789 68.2494 78.2397 68.8207C77.0568 70.4901 77.3267 72.1462 78.1197 73.8389Z" fill="#FEAF40"/>
<path d="M129.73 43.51C129.806 44.2131 129.35 44.6562 128.827 45.0128C124.13 48.1957 120.079 52.2401 116.888 56.9318C115.912 58.3512 114.795 58.2979 113.802 56.8618C110.643 52.1998 106.636 48.1726 101.99 44.9895C100.691 44.1098 100.658 42.9502 101.944 42.0805C106.642 38.8979 110.692 34.8494 113.876 30.1515C114.769 28.8187 115.988 28.8453 116.875 30.1815C120.023 34.802 124.021 38.7813 128.657 41.9072C129.213 42.2771 129.766 42.6903 129.73 43.51Z" fill="#FEC651"/>
<path d="M33.0339 90.243C33.3871 93.2752 34.1468 96.2408 34.6666 99.2397C34.8699 100.416 35.0631 101.592 35.263 102.768C34.2634 103.718 33.5271 104.878 32.6974 105.964C31.8677 107.05 31.118 107.08 30.325 105.964C28.0093 102.599 25.113 99.6733 21.7716 97.3237C20.7387 96.614 20.7254 95.8742 21.7716 95.1478C25.1596 92.7943 28.0945 89.848 30.4349 86.451C30.8281 85.8845 31.3479 85.6146 32.0476 85.8379L33.0339 90.243Z" fill="#5DCDFE"/>
<path d="M28.4724 41.5706C27.9959 41.5706 27.736 41.2741 27.4728 40.9209C25.5102 38.1652 23.2644 35.6928 20.4589 33.7568C19.4892 33.0904 19.5159 32.4973 20.4889 31.8142C23.2271 29.9169 25.598 27.538 27.4861 24.7934C28.1958 23.7571 28.8189 23.7405 29.5187 24.7767C31.3646 27.5591 33.8203 29.7016 36.4793 31.6509C37.6355 32.4973 37.6322 33.127 36.4626 33.9501C33.8054 35.8173 31.4939 38.1333 29.6319 40.7942C29.1588 41.474 28.9555 41.5906 28.4724 41.5706Z" fill="#5DCDFE"/>
<path d="M53.8325 125.027C52.8595 125.767 52.2031 126.78 51.5 127.756C50.9069 128.592 50.3538 128.592 49.764 127.756C48.2321 125.482 46.2924 123.512 44.0429 121.945C43.1533 121.342 43.2733 120.828 44.1129 120.249C45.1125 119.582 46.0955 118.883 46.8219 117.893C47.8936 116.906 48.8524 115.803 49.6807 114.604C50.4271 113.568 50.8436 113.541 51.5434 114.547C53.1008 116.715 55.0164 118.602 57.2078 120.125C58.2907 120.905 58.2974 121.328 57.2078 122.098C55.9812 122.951 54.8496 123.933 53.8325 125.027Z" fill="#E701C6"/>
<path d="M115.685 79.7268C114.685 80.5098 114.019 81.5628 113.263 82.5557C112.549 83.4987 112.13 83.5221 111.437 82.5557C109.83 80.2695 107.839 78.2796 105.552 76.6746C104.816 76.1714 104.846 75.6049 105.576 75.0885C106.762 74.315 107.841 73.3884 108.784 72.3328C109.759 71.492 110.613 70.5197 111.32 69.4439C112.06 68.3942 112.593 68.3776 113.319 69.4105C114.825 71.5931 116.758 73.3291 118.87 74.8919C119.99 75.7216 119.997 76.1048 118.87 76.9245C117.681 77.7023 116.608 78.6459 115.685 79.7268Z" fill="#FEC651"/>
<path d="M82.7312 136.816C81.8422 135.942 80.8827 135.143 79.8623 134.427C78.8627 133.687 78.8227 133.297 79.8623 132.554C82.0725 130.99 83.9947 129.054 85.5434 126.833C86.1299 125.983 86.703 126.007 87.2861 126.853C88.0931 128.066 89.0354 129.184 90.095 130.185C89.995 130.312 89.8384 130.422 89.8051 130.562C88.8255 134.56 87.3161 135.936 83.2343 136.506C83.1305 136.509 83.0293 136.539 82.9409 136.593C82.8525 136.647 82.7801 136.724 82.7312 136.816Z" fill="#5DCDFE"/>
<path d="M82.7312 136.816C82.7787 136.724 82.8496 136.646 82.9368 136.591C83.024 136.535 83.1244 136.504 83.2277 136.499C87.3094 135.933 88.8155 134.563 89.7984 130.555C89.8318 130.415 89.9884 130.302 90.0883 130.178C91.0016 131.081 91.9965 131.898 93.0605 132.617C93.9168 133.201 93.8902 133.784 93.0605 134.35C90.8013 135.902 88.8406 137.85 87.2728 140.098C86.6297 140.998 86.1632 140.964 85.4735 140.025C84.6606 138.873 83.7425 137.798 82.7312 136.816Z" fill="#5DCDFE"/>
</svg>
