<svg width="96" height="96" viewBox="0 0 96 96" fill="none" xmlns="http://www.w3.org/2000/svg">
<path d="M54.3352 2.99976C51.7946 2.99976 49.4996 4.00195 47.8144 5.63577C46.1292 4.01037 43.8257 2.99976 41.2936 2.99976C36.1193 2.99976 31.9189 7.16854 31.9189 12.3142C31.9189 17.46 36.1193 21.6372 41.2936 21.6372C42.5978 21.6372 43.8342 21.3677 44.969 20.896V33.7645H50.6683V20.896C51.7946 21.3761 53.0395 21.6372 54.3436 21.6372C59.5179 21.6372 63.7183 17.4684 63.7183 12.3142C63.7183 7.16012 59.5094 2.99976 54.3352 2.99976ZM41.2851 16.0283C39.2188 16.0283 37.5505 14.3692 37.5505 12.3142C37.5505 10.2593 39.2188 8.60024 41.2851 8.60024C43.2075 8.60024 44.7742 10.0572 44.9774 11.91C44.9774 12.0448 44.9605 12.1795 44.9605 12.3142V12.9206C44.6641 14.6808 43.1398 16.0283 41.2851 16.0283ZM54.3352 16.0283C52.4806 16.0283 50.9562 14.6892 50.6598 12.929V12.3142C50.6598 12.1795 50.6429 12.0448 50.6429 11.91C50.8461 10.0572 52.4128 8.60024 54.3352 8.60024C56.393 8.60024 58.0698 10.2678 58.0698 12.3142C58.0698 14.3607 56.393 16.0283 54.3352 16.0283Z" fill="#E9EDF5"/>
<path d="M69.8244 54.8285H24.9666C24.9666 42.5074 35.0102 32.5192 47.3997 32.5192C59.7892 32.5192 69.8244 42.5074 69.8244 54.8285Z" fill="#C8F6FB"/>
<path d="M76.4719 54.8287H75.8622C75.8622 39.3326 63.3372 26.7505 47.8144 26.5315V54.8287H47.3994V77.4243H89.107V67.394C89.107 60.4544 83.45 54.8287 76.4719 54.8287ZM51.0832 32.831C61.7197 34.5827 69.8241 43.7625 69.8241 54.8287H51.0832V32.831Z" fill="#D84C6F"/>
<path d="M47.3995 26.5236C31.6818 26.5236 18.9367 39.1983 18.9367 54.8292C18.9367 54.8544 18.9367 54.8713 18.9367 54.8965C12.5768 55.545 7.61426 60.8928 7.61426 67.3945V77.4248H47.8059V26.5404C47.6704 26.5404 47.535 26.532 47.391 26.532L47.3995 26.5236ZM24.9663 54.8292C24.9663 43.4766 33.5026 34.1116 44.5371 32.7051V54.8292H24.9663Z" fill="#D84C6F"/>
<path d="M4.87059 77.4243H47.3996V83.1343H4.87059C3.28697 83.1343 1.99976 81.8542 1.99976 80.2793C1.99976 78.7044 3.28697 77.4243 4.87059 77.4243Z" fill="#EB5379"/>
<path d="M8.52059 64.3022H12.5347C14.203 64.3022 15.5579 65.6497 15.5579 67.3088C15.5579 68.9679 14.203 70.3154 12.5347 70.3154H8.52059C7.98707 70.3154 7.55518 69.8859 7.55518 69.3553V65.2792C7.55518 64.7486 7.98707 64.3191 8.52059 64.3191V64.3022Z" fill="#F9D779"/>
<path d="M91.8591 83.1328H47.4078V77.4228H91.8591C93.4428 77.4228 94.73 78.703 94.73 80.2778C94.73 81.8527 93.4428 83.1328 91.8591 83.1328Z" fill="#EB5379"/>
<path d="M68.9944 92.8751C75.7153 92.8751 81.1637 87.4568 81.1637 80.773C81.1637 74.0892 75.7153 68.6709 68.9944 68.6709C62.2735 68.6709 56.8251 74.0892 56.8251 80.773C56.8251 87.4568 62.2735 92.8751 68.9944 92.8751Z" fill="#295570"/>
<path d="M68.9946 86.9567C72.4275 86.9567 75.2105 84.1891 75.2105 80.7751C75.2105 77.3611 72.4275 74.5935 68.9946 74.5935C65.5616 74.5935 62.7787 77.3611 62.7787 80.7751C62.7787 84.1891 65.5616 86.9567 68.9946 86.9567Z" fill="#295570"/>
<path d="M27.7269 92.8751C34.4478 92.8751 39.8962 87.4568 39.8962 80.773C39.8962 74.0892 34.4478 68.6709 27.7269 68.6709C21.006 68.6709 15.5576 74.0892 15.5576 80.773C15.5576 87.4568 21.006 92.8751 27.7269 92.8751Z" fill="#295570"/>
<path d="M27.7266 86.9567C31.1596 86.9567 33.9426 84.1891 33.9426 80.7751C33.9426 77.3611 31.1596 74.5935 27.7266 74.5935C24.2937 74.5935 21.5107 77.3611 21.5107 80.7751C21.5107 84.1891 24.2937 86.9567 27.7266 86.9567Z" fill="#295570"/>
<path d="M89.1325 70.3066H85.1184C83.4501 70.3066 82.0951 68.9592 82.0951 67.3001C82.0951 65.641 83.4501 64.2935 85.1184 64.2935H89.1325C89.666 64.2935 90.0979 64.723 90.0979 65.2536V69.3297C90.0979 69.8603 89.666 70.2898 89.1325 70.2898V70.3066Z" fill="#F9D779"/>
</svg>
