<svg width="96" height="96" viewBox="0 0 96 96" fill="none" xmlns="http://www.w3.org/2000/svg">
<g clip-path="url(#clip0_2452_18082)">
<path d="M39.7733 17.4766V93.0243C60.6353 93.0243 77.5472 76.1124 77.5472 55.2504C77.5472 34.3885 60.6353 17.4766 39.7733 17.4766Z" fill="#A54AF4"/>
<path d="M73.9359 55.2504C73.9359 34.3885 59.1554 17.4766 40.9245 17.4766C19.4269 17.4766 2 34.3885 2 55.2504C2 76.1124 19.4269 93.0243 40.9245 93.0243C59.1571 93.0243 73.9359 76.1124 73.9359 55.2504Z" fill="#A54AF4"/>
<path d="M39.7741 82.9818C55.0901 82.9818 67.5062 70.5657 67.5062 55.2497C67.5062 39.9337 55.0901 27.5176 39.7741 27.5176C24.4581 27.5176 12.042 39.9337 12.042 55.2497C12.042 70.5657 24.4581 82.9818 39.7741 82.9818Z" fill="white"/>
<path d="M40.9684 74.0379C50.7395 74.0379 58.6605 66.1169 58.6605 56.3459C58.6605 46.5748 50.7395 38.6538 40.9684 38.6538C31.1974 38.6538 23.2764 46.5748 23.2764 56.3459C23.2764 66.1169 31.1974 74.0379 40.9684 74.0379Z" fill="#893ADD"/>
<path d="M39.7735 72.9426C49.5445 72.9426 57.4655 65.0216 57.4655 55.2505C57.4655 45.4795 49.5445 37.5585 39.7735 37.5585C30.0024 37.5585 22.0814 45.4795 22.0814 55.2505C22.0814 65.0216 30.0024 72.9426 39.7735 72.9426Z" fill="#A54AF4"/>
<path d="M39.7733 62.897C43.9985 62.897 47.4236 59.4719 47.4236 55.2467C47.4236 51.0216 43.9985 47.5964 39.7733 47.5964C35.5482 47.5964 32.123 51.0216 32.123 55.2467C32.123 59.4719 35.5482 62.897 39.7733 62.897Z" fill="#F1F2F2"/>
<path d="M86.7839 8.23803L75.2889 14.3229L84.7562 21.0843L86.7856 19.0548C89.7737 16.0668 89.7737 11.2227 86.7856 8.23633L86.7839 8.23803Z" fill="#F1F2F2"/>
<path d="M75.9628 8.23993L73.9351 10.2677L77.9922 17.029L86.783 8.23823C83.7949 5.25018 78.9508 5.25018 75.9645 8.23823L75.9628 8.23993Z" fill="#F1F2F2"/>
<path d="M47.1349 47.8879L54.9212 50.9201L80.6969 25.1443L75.2868 17.03L47.1349 47.8879Z" fill="#FFA91A"/>
<path d="M69.8789 14.3256L44.1031 40.1013L47.1354 47.8876L76.6403 18.3827L69.8789 14.3256Z" fill="#FFC91D"/>
<path d="M79.3444 15.6792L75.9637 16.354L75.2872 19.7364L80.6973 25.1448L84.7545 21.0876L79.3444 15.6792Z" fill="#B9B9B9"/>
<path d="M73.9353 10.27L69.8778 14.3275L75.2874 19.7371L79.3449 15.6796L73.9353 10.27Z" fill="#DCDCDC"/>
<path d="M49.5109 45.5131L41.8029 50.5169L47.1365 53.1464L54.921 50.9232L49.5109 45.5131Z" fill="#FFC1A6"/>
<path d="M44.1032 40.1022L41.8783 47.8867L43.1548 51.8691L49.5116 45.5123L44.1032 40.1022Z" fill="#FFDBCC"/>
<path d="M44.5069 50.5178L42.0713 50.7881L39.7733 55.2515L47.1364 53.1472L44.5069 50.5178Z" fill="#272727"/>
<path d="M41.8775 47.8873L39.7733 55.2504L44.5069 50.5167L41.8775 47.8873Z" fill="#4D4D4D"/>
</g>
<defs>
<clipPath id="clip0_2452_18082">
<rect width="87.024" height="87.024" fill="white" transform="translate(2 6)"/>
</clipPath>
</defs>
</svg>
