<svg width="96" height="96" viewBox="0 0 96 96" fill="none" xmlns="http://www.w3.org/2000/svg">
<path d="M84.1217 83.0758V42.9427H12.8252V83.0758C12.8252 86.4435 15.5552 89.1733 18.9227 89.1733H78.0242C81.3919 89.1733 84.1217 86.4435 84.1217 83.0758Z" fill="#FAF8DA"/>
<path fill-rule="evenodd" clip-rule="evenodd" d="M26.823 25.3685H42.1064C41.549 24.2303 40.8567 23.0417 40.0221 21.8835C37.3782 18.2145 34.2636 16.1463 31.2301 16.1463C27.9084 16.1463 26.5377 17.0956 25.9788 17.7154C25.3802 18.379 24.9919 19.4643 25.13 21.0241C25.269 22.5958 25.9259 24.2141 26.823 25.3685ZM16.7153 25.3685C16.3628 24.2168 16.1251 23.0264 16.0192 21.8302C15.7213 18.4629 16.4527 14.6212 19.1868 11.5897C21.9606 8.51417 26.1356 7 31.2301 7C38.5432 7 44.0508 11.8295 47.4425 16.5364C47.7996 17.0319 48.1438 17.5404 48.474 18.0588C48.8042 17.5404 49.1485 17.0319 49.5055 16.5364C52.8972 11.8295 58.4048 7 65.7179 7C70.8124 7 74.9873 8.51417 77.7611 11.5897C80.4952 14.6212 81.227 18.4629 80.9288 21.8302C80.8227 23.0264 80.5855 24.2168 80.2324 25.3685H83.8507C87.2178 25.3685 89.9483 28.0985 89.9483 31.466V36.8446C89.9483 40.2122 87.2178 42.9422 83.8507 42.9422H52.285V89.1729H44.663V42.9422H13.0975C9.72996 42.9422 7 40.2122 7 36.8446V31.466C7 28.0985 9.72996 25.3685 13.0975 25.3685H16.7153ZM70.1252 25.3685C71.0221 24.2141 71.6788 22.5958 71.8178 21.0241C71.9562 19.4643 71.5678 18.379 70.9691 17.7154C70.4105 17.0956 69.0398 16.1463 65.7179 16.1463C62.6844 16.1463 59.5698 18.2145 56.9259 21.8835C56.0914 23.0417 55.399 24.2303 54.8416 25.3685H70.1252Z" fill="#2859C5"/>
</svg>
