<svg width="96" height="96" viewBox="0 0 96 96" fill="none" xmlns="http://www.w3.org/2000/svg">
<path fill-rule="evenodd" clip-rule="evenodd" d="M50.491 20.2746C49.9418 19.4758 49.0444 19 48.0867 19C47.1291 19 46.2317 19.4758 45.6825 20.2746L27.1451 47.238L12.01 31.8277C11.1706 30.9731 9.90833 30.7175 8.81168 31.18C7.71503 31.6425 7 32.7321 7 33.9406V72.7863C7 75.9561 8.23679 78.9962 10.4383 81.2379C12.6398 83.4796 15.6257 84.7388 18.7391 84.7388H77.4344C80.5476 84.7388 83.5335 83.4796 85.7351 81.2379C87.9368 78.9962 89.1735 75.9561 89.1735 72.7863V33.9406C89.1735 32.7321 88.4586 31.6425 87.3616 31.18C86.2651 30.7175 85.0026 30.9731 84.1633 31.8277L69.0287 47.238L50.491 20.2746Z" fill="#FCB424"/>
</svg>
