<svg width="120" height="172" viewBox="0 0 120 172" fill="none" xmlns="http://www.w3.org/2000/svg">
<path d="M116.335 38.3524C118.478 38.3524 119.989 37.0924 119.948 35.3039C119.907 33.5155 118.366 32.1437 116.213 32.2555C114.463 32.409 112.819 33.1591 111.56 34.3792C111.243 34.6434 110.947 35.0702 110.468 34.8771C109.141 34.3487 107.865 33.7085 107.406 32.2148C107.173 31.5506 107.13 30.8352 107.281 30.1481C107.433 29.4609 107.773 28.8291 108.263 28.323C108.375 28.1509 108.521 28.0033 108.692 27.889C108.863 27.7747 109.055 27.6962 109.258 27.6582C109.46 27.6202 109.668 27.6235 109.869 27.6679C110.07 27.7123 110.26 27.7969 110.427 27.9165C112.041 28.8847 113.915 29.3353 115.795 29.207C116.654 29.1937 117.473 28.8438 118.074 28.2332C118.676 27.6227 119.012 26.8006 119.009 25.9451C118.907 24.1974 117.56 23.0999 115.478 23.039C113.55 23.0145 111.672 23.6534 110.161 24.8477C110.044 24.9798 109.899 25.0856 109.737 25.1581C109.575 25.2305 109.4 25.268 109.223 25.268C109.045 25.268 108.87 25.2305 108.708 25.1581C108.546 25.0856 108.402 24.9798 108.284 24.8477C107.549 24.2075 106.682 23.7299 105.947 23.0897C104.365 21.7179 104.396 20.2852 105.947 18.9134C106.831 18.1863 107.805 17.5749 108.845 17.0944C109.355 16.8505 109.712 16.5254 109.376 15.9055C109.33 15.7961 109.26 15.6982 109.171 15.6188C109.083 15.5394 108.977 15.4806 108.863 15.4466C108.749 15.4126 108.629 15.4042 108.511 15.4221C108.393 15.4399 108.281 15.4836 108.182 15.5499C106.634 16.2277 105.244 17.2172 104.1 18.4561C103.431 19.1567 103.059 20.0861 103.059 21.0524C103.059 22.0186 103.431 22.948 104.1 23.6486C104.857 24.5084 105.75 25.2394 106.743 25.813C107.549 26.3211 107.682 26.6158 106.937 27.3779C106.003 28.3795 105.491 29.6991 105.504 31.0655C105.517 32.4319 106.055 33.7413 107.008 34.7247C107.682 35.436 109.161 35.6494 109.151 36.4623C109.141 37.2752 108.131 38.1492 107.59 38.9926C107.273 39.4702 107.161 40.0087 107.702 40.3237C108.243 40.6388 108.661 40.3237 108.998 39.9071C109.478 39.2568 109.957 38.6166 110.406 37.9459C110.491 37.7899 110.608 37.6534 110.749 37.545C110.89 37.4367 111.052 37.3589 111.225 37.3168C111.398 37.2747 111.578 37.2691 111.754 37.3005C111.929 37.3318 112.096 37.3994 112.243 37.4988C113.529 38.0748 114.925 38.366 116.335 38.3524ZM13.0416 22.3886C13.1539 21.5554 13.2559 20.712 13.3784 19.8787C13.424 19.6292 13.4923 19.3843 13.5824 19.1471C13.6321 18.8637 13.7417 18.5941 13.9038 18.356C14.066 18.118 14.277 17.917 14.523 17.7662C14.7689 17.6154 15.0443 17.5183 15.3307 17.4813C15.6172 17.4443 15.9083 17.4683 16.1847 17.5517C17.5217 17.8135 18.7856 18.3613 19.8891 19.1572C20.2667 19.3909 20.6953 19.584 21.0321 19.1572C21.3688 18.7304 21.032 18.263 20.6851 17.9886C19.3245 16.9561 17.7102 16.3069 16.0112 16.1088C15.1804 16.0075 14.3406 16.2059 13.6441 16.6683C12.9476 17.1306 12.4407 17.8262 12.215 18.6288C11.8909 19.68 11.7158 20.771 11.6946 21.8703C11.6231 22.795 11.317 23.0897 10.3373 22.8865C9.0578 22.5922 7.71341 22.811 6.59449 23.4954C5.47558 24.1799 4.67196 25.2752 4.35725 26.5447C4.08172 27.4491 4.6736 28.6583 3.90824 29.1867C3.14287 29.7151 2.03055 29.014 1.05088 29.0851C0.54064 29.0851 0.0303955 29.1562 0.0303955 29.7963C0.0303955 30.4365 0.438556 30.4874 0.887571 30.5382C1.63941 30.6711 2.40004 30.7492 3.1633 30.7719C4.18379 30.7719 4.47969 31.3002 4.59195 32.1437C4.74827 33.3187 5.0928 34.4611 5.61243 35.5275C5.79344 36.0954 6.13007 36.6018 6.5844 36.9896C7.03873 37.3773 7.59275 37.6311 8.18408 37.7224C8.80521 37.7872 9.43138 37.6613 9.9786 37.3616C10.5258 37.0619 10.9679 36.6028 11.2455 36.0457C11.471 35.4063 11.5072 34.7157 11.3498 34.0564C11.1924 33.397 10.8481 32.7966 10.3577 32.3266C9.29639 31.28 7.99787 30.5028 6.5717 30.0606C6.20432 29.9386 5.85738 29.8675 5.70431 29.4204C5.46995 28.7871 5.40454 28.1041 5.51452 27.4381C5.6245 26.7721 5.90609 26.1459 6.33177 25.6207C6.75745 25.0955 7.31265 24.6891 7.94316 24.4414C8.57368 24.1937 9.25799 24.1131 9.92914 24.2075C10.9496 24.3701 11.5925 24.7156 11.6741 25.9553C11.6604 27.7038 12.18 29.4152 13.1641 30.8634C14.3785 32.4181 16.1541 32.8449 17.5216 31.8795C18.736 31.0666 18.9809 29.2781 18.0828 27.6421C17.1352 26.1241 15.7424 24.9323 14.0927 24.2278C13.7233 24.1003 13.4131 23.8434 13.2198 23.505C13.0264 23.1667 12.9631 22.77 13.0416 22.3886ZM86.578 16.9522C87.3104 16.9838 88.0417 16.8672 88.7277 16.6097C89.4137 16.3522 90.0402 15.9591 90.5695 15.4539C91.0987 14.9487 91.5198 14.3421 91.8072 13.6705C92.0946 12.9989 92.2424 12.2763 92.2417 11.5462C92.2794 10.8017 92.1654 10.0572 91.9066 9.35765C91.6479 8.65807 91.2498 8.01787 90.7361 7.47549C90.2225 6.93311 89.6039 6.49976 88.9177 6.20158C88.2316 5.90339 87.4919 5.7465 86.7432 5.74032C85.9946 5.73415 85.2524 5.87883 84.5614 6.16567C83.8703 6.4525 83.2447 6.87554 82.7221 7.40938C82.1995 7.94321 81.7907 8.57679 81.5203 9.272C81.25 9.96721 81.1237 10.7097 81.149 11.4548C81.1283 12.1759 81.2542 12.8937 81.519 13.5652C81.7839 14.2367 82.1822 14.848 82.6902 15.3624C83.1982 15.8768 83.8054 16.2836 84.4752 16.5585C85.145 16.8335 85.8637 16.9708 86.5882 16.9623L86.578 16.9522ZM37.9721 5.94723C37.9898 5.38569 37.8951 4.82627 37.6937 4.3015C37.4922 3.77672 37.188 3.29706 36.7986 2.89045C36.4093 2.48385 35.9426 2.15839 35.4258 1.93303C34.9089 1.70767 34.3523 1.58693 33.7882 1.57778C32.6483 1.58023 31.5547 2.02735 30.742 2.82328C29.9293 3.61922 29.4622 4.7006 29.4409 5.83546C29.443 6.94578 29.8785 8.01179 30.6555 8.8082C31.4325 9.60461 32.4899 10.069 33.6044 10.1033C34.1693 10.1323 34.7343 10.0462 35.2646 9.85016C35.7949 9.65409 36.2793 9.35221 36.6883 8.96307C37.0973 8.57392 37.4221 8.10573 37.6428 7.58713C37.8636 7.06853 37.9757 6.51048 37.9721 5.94723ZM61.5352 8.25392C61.6577 8.16246 61.923 8.08115 61.974 7.91857C62.5961 6.47266 63.7444 5.31463 65.1885 4.67703C65.9539 4.26041 65.7498 3.73202 65.0049 3.41701C63.7826 2.91471 62.7928 1.97613 62.2292 0.785146C61.6985 -0.231009 61.2086 -0.291978 60.7188 0.785146C60.2047 1.9013 59.3225 2.80859 58.2186 3.35605C57.0553 3.9759 57.0655 4.49412 58.2799 5.05301C58.8277 5.27239 59.3232 5.60369 59.7345 6.0255C60.1458 6.4473 60.4637 6.95022 60.6678 7.50191C60.7179 7.70143 60.8277 7.88111 60.9826 8.01718C61.1374 8.15326 61.3302 8.23933 61.5352 8.26403V8.25392Z" fill="#EEEEEE"/>
<path d="M116.336 38.3529C114.928 38.359 113.535 38.0608 112.254 37.4789C112.106 37.3795 111.939 37.3119 111.764 37.2806C111.589 37.2492 111.409 37.2548 111.236 37.2969C111.063 37.339 110.9 37.4168 110.759 37.5251C110.618 37.6335 110.502 37.7701 110.417 37.926C109.968 38.5967 109.488 39.2369 109.009 39.8873C108.682 40.3344 108.264 40.6697 107.713 40.3039C107.162 39.9381 107.284 39.4401 107.6 38.9727C108.162 38.1293 109.162 37.2961 109.162 36.4425C109.162 35.5889 107.692 35.4263 107.019 34.7049C106.066 33.7214 105.528 32.412 105.514 31.0456C105.501 29.6792 106.014 28.3597 106.947 27.3581C107.692 26.6061 107.56 26.3419 106.753 25.7932C105.76 25.2195 104.867 24.4885 104.11 23.6288C103.442 22.9282 103.069 21.9988 103.069 21.0325C103.069 20.0662 103.442 19.1368 104.11 18.4362C105.255 17.1973 106.645 16.2078 108.192 15.53C108.291 15.4637 108.403 15.4201 108.521 15.4022C108.639 15.3843 108.759 15.3927 108.874 15.4268C108.988 15.4608 109.093 15.5196 109.182 15.5989C109.27 15.6783 109.34 15.7762 109.386 15.8857C109.723 16.5055 109.386 16.8307 108.856 17.0746C107.815 17.5551 106.841 18.1664 105.957 18.8935C104.365 20.2551 104.335 21.6981 105.957 23.0699C106.692 23.7101 107.559 24.1877 108.294 24.8279C108.412 24.96 108.557 25.0658 108.718 25.1382C108.88 25.2107 109.056 25.2481 109.233 25.2481C109.411 25.2481 109.586 25.2107 109.748 25.1382C109.91 25.0658 110.054 24.96 110.172 24.8279C111.682 23.6336 113.56 22.9947 115.489 23.0191C117.53 23.08 118.918 24.1775 119.02 25.9253C119.022 26.7807 118.687 27.6028 118.085 28.2133C117.483 28.8239 116.664 29.1738 115.805 29.1871C113.924 29.3237 112.046 28.8802 110.427 27.917C110.095 27.6897 109.687 27.6027 109.291 27.6751C108.895 27.7475 108.544 27.9734 108.315 28.3031C107.824 28.8093 107.484 29.4411 107.333 30.1282C107.181 30.8153 107.225 31.5308 107.457 32.195C107.906 33.6887 109.182 34.3289 110.519 34.8573C110.999 35.0504 111.294 34.6236 111.611 34.3594C112.87 33.1392 114.514 32.3891 116.264 32.2356C118.417 32.1645 119.958 33.4448 119.999 35.2841C120.04 37.1233 118.489 38.363 116.336 38.3529ZM114.978 27.5918C116.448 27.5918 117.356 26.9618 117.315 26.0167C117.275 25.0717 116.295 24.5535 115.08 24.645C113.853 24.7867 112.672 25.196 111.621 25.844C110.988 26.1895 111.06 26.5045 111.621 26.789C112.682 27.256 113.82 27.5246 114.978 27.5816V27.5918ZM116.172 36.7372C117.611 36.7372 118.356 36.1681 118.213 35.1723C118.071 34.1765 117.193 33.6481 116.009 33.8411C114.924 34.0445 113.909 34.5201 113.06 35.2231C112.631 35.5584 112.458 35.8125 113.162 36.0564C114.142 36.39 115.154 36.6215 116.183 36.7473L116.172 36.7372Z" fill="#FC4C9C"/>
<path d="M13.0419 22.3886C12.9506 22.772 13.0042 23.1755 13.1924 23.5222C13.3806 23.8688 13.6902 24.1344 14.0624 24.2685C15.7121 24.9729 17.1048 26.1647 18.0524 27.6828C18.9505 29.3289 18.7056 31.1072 17.4912 31.9201C16.1135 32.8448 14.3379 32.418 13.1337 30.904C12.1496 29.4558 11.6301 27.7444 11.6438 25.9959C11.5622 24.7562 10.8784 24.4108 9.89875 24.2482C9.22759 24.1538 8.54335 24.2344 7.91283 24.4821C7.28231 24.7298 6.72712 25.1361 6.30144 25.6613C5.87576 26.1866 5.59417 26.8127 5.48419 27.4787C5.37421 28.1447 5.43955 28.8277 5.67391 29.461C5.82698 29.898 6.16378 29.9793 6.54136 30.1012C7.96754 30.5434 9.266 31.3206 10.3273 32.3672C10.8177 32.8373 11.1621 33.4377 11.3195 34.0971C11.4769 34.7564 11.4407 35.4469 11.2152 36.0863C10.9376 36.6434 10.4955 37.1026 9.94826 37.4023C9.40104 37.702 8.77488 37.8278 8.15375 37.763C7.56242 37.6718 7.0084 37.4179 6.55407 37.0302C6.09974 36.6424 5.76311 36.1361 5.5821 35.5681C5.06247 34.5018 4.71793 33.3593 4.56161 32.1843C4.44936 31.3409 4.15339 30.782 3.13291 30.8125C2.36964 30.7898 1.60908 30.7117 0.857237 30.5788C0.408223 30.528 0 30.3857 0 29.837C0 29.2883 0.469424 29.1562 1.02049 29.1257C2.04098 29.0546 3.06151 29.7557 3.8779 29.2273C4.69429 28.6989 4.04118 27.4897 4.32692 26.5853C4.64163 25.3158 5.44518 24.2205 6.5641 23.536C7.68301 22.8516 9.02746 22.6329 10.307 22.9272C11.3275 23.1203 11.6029 22.8256 11.6642 21.911C11.6854 20.8117 11.8605 19.7206 12.1846 18.6695C12.4103 17.8669 12.9173 17.1713 13.6138 16.7089C14.3102 16.2466 15.15 16.0481 15.9809 16.1494C17.6799 16.3475 19.2942 16.9968 20.6547 18.0293C21.0527 18.3037 21.3894 18.6999 21.0017 19.1979C20.6139 19.6958 20.2363 19.4417 19.8587 19.1979C18.7552 18.4019 17.4913 17.8541 16.1543 17.5924C15.8779 17.509 15.5868 17.485 15.3003 17.5219C15.0139 17.5589 14.7386 17.656 14.4926 17.8068C14.2466 17.9576 14.0356 18.1587 13.8734 18.3967C13.7113 18.6348 13.6018 18.9043 13.5521 19.1877C13.462 19.4249 13.3936 19.6698 13.348 19.9193C13.2562 20.7221 13.1541 21.5553 13.0419 22.3886ZM13.1031 26.5548C13.2503 27.8043 13.6908 29.0018 14.3889 30.0504C14.889 30.7922 15.6237 31.3613 16.5319 30.8532C17.4402 30.3451 17.2871 29.4204 16.9605 28.6075C16.3788 27.1848 15.093 26.4735 13.899 25.7521C13.1541 25.3456 13.1031 25.8841 13.1031 26.5548ZM10.0416 34.999C10.0416 33.5256 7.83734 31.4527 6.5005 31.6153C6.0821 31.6153 6.0311 31.9303 6.07192 32.2351C6.23029 33.5849 6.76001 34.8649 7.60265 35.9339C7.79991 36.1622 8.07114 36.3145 8.36932 36.3646C8.66751 36.4147 8.97391 36.3594 9.23547 36.2083C9.47406 36.1198 9.678 35.9577 9.81753 35.7456C9.95705 35.5336 10.0248 35.2827 10.011 35.0296L10.0416 34.999Z" fill="#FC4C9C"/>
<path d="M81.4983 31.703C80.7756 31.7115 80.0586 31.5748 79.3902 31.3011C78.7217 31.0274 78.1156 30.6223 77.6079 30.1102C77.1002 29.598 76.7013 28.9892 76.4352 28.32C76.1691 27.6509 76.0412 26.9353 76.0591 26.2159C76.0338 25.4708 76.1601 24.7283 76.4304 24.0331C76.7008 23.3379 77.1096 22.7043 77.6322 22.1705C78.1548 21.6366 78.7804 21.2136 79.4715 20.9268C80.1625 20.6399 80.9047 20.4952 81.6533 20.5014C82.402 20.5076 83.1417 20.6645 83.8278 20.9627C84.514 21.2608 85.1326 21.6941 85.6462 22.2365C86.1599 22.7789 86.558 23.4192 86.8167 24.1187C87.0755 24.8183 87.1895 25.5627 87.1518 26.3073C87.151 27.0355 87.0025 27.7562 86.7152 28.4259C86.4278 29.0956 86.0075 29.7006 85.4795 30.2045C84.9515 30.7084 84.3266 31.1009 83.6425 31.3585C82.9584 31.616 82.229 31.7332 81.4983 31.703Z" fill="#FCB424"/>
<path d="M42.553 19.7625C42.5565 20.3249 42.4447 20.882 42.2246 21.3999C42.0045 21.9178 41.6805 22.3855 41.2727 22.7745C40.8648 23.1635 40.3816 23.4656 39.8525 23.6623C39.3234 23.8591 38.7596 23.9462 38.1955 23.9186C37.081 23.8843 36.0236 23.4199 35.2466 22.6235C34.4697 21.8271 34.0341 20.7611 34.032 19.6508C34.0533 18.5159 34.5204 17.4345 35.3331 16.6386C36.1458 15.8426 37.2393 15.3955 38.3792 15.3931C38.9425 15.4036 39.4981 15.5253 40.0137 15.7512C40.5294 15.9772 40.9948 16.3029 41.3831 16.7093C41.7713 17.1158 42.0747 17.595 42.2755 18.1191C42.4764 18.6432 42.5707 19.2018 42.553 19.7625Z" fill="#FCB424"/>
<path d="M61.5355 8.26492C61.3304 8.24022 61.1377 8.15415 60.9828 8.01808C60.828 7.882 60.7182 7.70232 60.668 7.50281C60.464 6.95112 60.1461 6.4482 59.7348 6.02639C59.3234 5.60459 58.8279 5.27328 58.2801 5.0539C57.0658 4.50518 57.0555 3.9768 58.2189 3.35694C59.3227 2.80949 60.205 1.90219 60.7191 0.786041C61.2089 -0.230113 61.7396 -0.230113 62.2294 0.786041C62.7931 1.97703 63.7829 2.91561 65.0051 3.41791C65.7603 3.73292 65.9542 4.26131 65.1888 4.67793C63.7447 5.31553 62.5963 6.47356 61.9743 7.91946C61.9233 8.09221 61.6579 8.17347 61.5355 8.26492Z" fill="#9966CC"/>
<path d="M114.978 27.5817C113.837 27.5154 112.716 27.2434 111.672 26.779C111.07 26.4945 110.988 26.1795 111.672 25.834C112.723 25.186 113.904 24.7766 115.131 24.6349C116.387 24.5435 117.336 25.1531 117.366 26.0067C117.397 26.8603 116.458 27.6122 114.978 27.5817Z" fill="#EEEEEE"/>
<path d="M116.182 36.7466C115.172 36.624 114.177 36.3993 113.213 36.076C112.509 35.8321 112.682 35.578 113.111 35.2427C113.96 34.5398 114.975 34.0641 116.06 33.8607C117.264 33.6676 118.162 34.2265 118.264 35.1919C118.366 36.1572 117.621 36.7669 116.182 36.7466Z" fill="#EEEEEE"/>
<path d="M13.1029 26.5555C13.1029 25.8849 13.1029 25.3463 13.8581 25.7528C15.0928 26.4742 16.3889 27.1754 16.9195 28.6082C17.2563 29.4313 17.4094 30.3458 16.4909 30.8539C15.5725 31.362 14.8479 30.7929 14.3479 30.0511C13.6642 28.9988 13.2378 27.8016 13.1029 26.5555Z" fill="#EEEEEE"/>
<path d="M10.0109 35.0292C10.0318 35.2928 9.96396 35.5558 9.81795 35.7767C9.67194 35.9975 9.45616 36.1636 9.20475 36.2486C8.94319 36.3998 8.63679 36.455 8.3386 36.4049C8.04042 36.3548 7.76926 36.2025 7.57199 35.9743C6.72936 34.9052 6.19963 33.6252 6.04126 32.2754C6.04126 31.9706 6.04124 31.7064 6.46985 31.6556C7.80669 31.4524 10.0415 33.5253 10.0109 35.0292Z" fill="#EEEEEE"/>
<path d="M117.805 111.393V93.6263C117.805 88.8037 113.877 84.8936 109.033 84.8936H75.953V111.393H117.805Z" fill="#FCB424"/>
<path d="M17.9346 84.8936C13.0902 84.8936 9.16345 88.805 9.16345 93.6263V111.391H51.0146V84.8936H17.9346Z" fill="#FCB424"/>
<path d="M100.815 172C105.662 172 109.588 168.09 109.588 163.267V116.503H75.953V172H100.815Z" fill="#28B3DD"/>
<path d="M17.3786 116.503V139.885V163.267C17.3786 168.09 21.3067 172 26.1497 172H51.0133V116.503H17.3786Z" fill="#28B3DD"/>
<path d="M99.6084 55.4637C97.438 53.2815 93.3732 50.6517 86.6015 50.9292C79.5117 51.2146 72.2366 54.5723 65.5635 60.6384C64.8313 61.302 64.1411 61.9723 63.4838 62.6373C62.8265 61.9723 62.135 61.3007 61.4041 60.6384C54.731 54.5709 47.4559 51.2132 40.3674 50.9292C33.5879 50.653 29.5296 53.2828 27.3605 55.4637C24.6892 58.1472 23.2194 61.7668 23.2194 65.652C23.2194 73.5128 28.8973 79.4415 36.4262 79.4415H90.5388C98.0703 79.4415 103.748 73.5128 103.748 65.652C103.748 61.7668 102.278 58.1472 99.6084 55.4637ZM36.4275 68.9639C33.7706 68.9639 33.7404 65.7868 33.7404 65.652C33.7404 65.0106 33.8824 63.7945 34.8355 62.8376C36.0278 61.6385 37.9814 61.3871 39.4104 61.3871C39.5839 61.3871 39.7627 61.3911 39.9441 61.3989C45.6943 61.628 51.0172 65.2305 54.9703 68.9652L36.4275 68.9639ZM90.5388 68.9639H72.0223C72.2287 68.7675 72.4404 68.5712 72.656 68.3748C76.0175 65.3195 81.2365 61.628 87.0248 61.3976C87.2049 61.3897 87.3824 61.3858 87.5559 61.3858C88.9862 61.3858 90.9398 61.6385 92.1321 62.8362C93.0853 63.7932 93.2259 65.0106 93.2259 65.6507C93.2272 65.7868 93.197 68.9639 90.5388 68.9639Z" fill="#FC4C9C"/>
<path d="M99.6084 55.4637C97.438 53.2815 93.3732 50.6517 86.6015 50.9292C79.5117 51.2146 72.2366 54.5723 65.5635 60.6384C64.8313 61.302 64.1411 61.9723 63.4838 62.6373C62.8265 61.9723 62.135 61.3007 61.4041 60.6384C54.731 54.5709 47.4559 51.2132 40.3674 50.9292C33.5879 50.653 29.5296 53.2828 27.3605 55.4637C24.6892 58.1472 23.2194 61.7668 23.2194 65.652C23.2194 73.5128 28.8973 79.4415 36.4262 79.4415H90.5388C98.0703 79.4415 103.748 73.5128 103.748 65.652C103.748 61.7668 102.278 58.1472 99.6084 55.4637ZM36.4275 68.9639C33.7706 68.9639 33.7404 65.7868 33.7404 65.652C33.7404 65.0106 33.8824 63.7945 34.8355 62.8376C36.0278 61.6385 37.9814 61.3871 39.4104 61.3871C39.5839 61.3871 39.7627 61.3911 39.9441 61.3989C45.6943 61.628 51.0172 65.2305 54.9703 68.9652L36.4275 68.9639ZM90.5388 68.9639H72.0223C72.2287 68.7675 72.4404 68.5712 72.656 68.3748C76.0175 65.3195 81.2365 61.628 87.0248 61.3976C87.2049 61.3897 87.3824 61.3858 87.5559 61.3858C88.9862 61.3858 90.9398 61.6385 92.1321 62.8362C93.0853 63.7932 93.2259 65.0106 93.2259 65.6507C93.2272 65.7868 93.197 68.9639 90.5388 68.9639Z" fill="white" fill-opacity="0.4"/>
</svg>
